<svg width="32" height="32" viewBox="0 0 32 32" fill="none" xmlns="http://www.w3.org/2000/svg">
<mask id="mask0_3_668" style="mask-type:luminance" maskUnits="userSpaceOnUse" x="5" y="0" width="23" height="32">
<path d="M5 0H27.6958V31.8025H5V0Z" fill="white"/>
</mask>
<g mask="url(#mask0_3_668)">
<path d="M26.2087 17.1975C26.1803 17.1457 26.1628 17.1194 26.1628 17.1194L26.1861 17.1238C26.3087 16.5882 26.316 16.0519 26.208 15.5134C26.7458 15.3973 27.2419 15.1828 27.6958 14.8705C27.2098 14.6852 26.7633 14.429 26.3561 14.1043C25.9708 13.7789 25.6221 13.4192 25.3083 13.0237L26.3189 13.3243L25.2412 11.3607C24.8625 10.8835 24.3977 10.5172 23.846 10.2611L23.6512 10.1808L23.6286 10.1728C23.8453 9.97215 24.2087 9.69414 24.807 9.37235C23.8949 8.83238 22.8697 8.85208 22.2999 8.92067C22.1744 8.93381 22.0496 8.95424 21.9263 8.98197C21.8818 8.99145 21.8577 8.99802 21.8577 8.99802C21.881 8.90462 21.8942 8.80976 21.8985 8.71417L21.9029 8.58502L22.0248 8.12751L22.9485 6.0304L22.6807 5.62397L23.2492 5.34304L24.7786 1.87048L19.0791 4.24049L17.0681 1.32832L16.3479 0.015625L15.6277 1.32832L13.6167 4.24049L7.91724 1.87267L9.44737 5.3445L10.0172 5.62397L9.75164 6.03113L10.6754 8.12824L10.7973 8.58575L10.8016 8.7149C10.806 8.81049 10.8199 8.90535 10.8425 8.99875C10.8425 8.99875 10.8184 8.99291 10.7732 8.9827C10.6499 8.95497 10.5258 8.93454 10.4003 8.9214C9.83045 8.85281 8.80598 8.83457 7.89316 9.37308C8.49003 9.69487 8.85487 9.97287 9.07158 10.1735L9.04896 10.1816L8.85414 10.2618C8.30251 10.5179 7.8377 10.8842 7.459 11.3622L6.38127 13.325L7.39187 13.0251C7.07811 13.4199 6.7286 13.7796 6.34333 14.1051C5.93544 14.4305 5.48742 14.6852 5 14.8705C5.45386 15.1828 5.94931 15.3973 6.48781 15.5134C6.37981 16.0519 6.38711 16.5882 6.5097 17.1238L6.53305 17.1194C6.53305 17.1194 6.51626 17.1457 6.48708 17.1975C6.17259 17.7323 5.96755 18.4153 5.8705 19.2457C5.75594 20.0104 5.70268 20.9911 5.80775 22.2024C6.09816 21.9535 6.31852 21.7587 6.48708 21.6099C6.47905 21.6514 6.47102 21.6967 6.46154 21.7405C6.44403 21.8164 6.15362 23.0765 5.80775 24.3272C6.30539 24.0404 6.7753 23.7135 7.21748 23.3465C7.21164 23.4487 7.20945 23.5523 7.21091 23.653C7.23426 25.3706 8.25362 26.4571 8.29667 26.5024L8.56008 26.7775L8.79723 27.027L9.4605 27.7224C9.4605 27.7224 9.61519 29.3766 11.4511 30.9345L11.5342 30.2697C11.7641 30.5682 12.0618 30.9323 12.2552 31.0855C12.261 31.0724 12.3077 29.9078 12.3551 29.7334C12.5813 30.2011 13.0899 30.8812 14.2114 31.2701C14.1516 31.0286 14.1027 30.8243 14.0633 30.6557C14.2377 30.8367 14.4559 31.0556 14.6514 31.2409C14.7703 31.3679 14.8995 31.4832 15.0389 31.5861C15.0608 31.6036 15.0797 31.6182 15.0972 31.6277C15.0666 31.2957 15.0462 31.0768 15.0323 30.933C15.1067 30.9928 15.1855 31.0512 15.268 31.1081C15.4686 31.357 15.8072 31.6481 16.3486 31.7867C16.8915 31.6459 17.2286 31.3577 17.4293 31.1081C17.5117 31.0512 17.5898 30.9928 17.6642 30.933C17.6511 31.0768 17.6307 31.2949 17.5993 31.6277C17.6153 31.6175 17.6358 31.6029 17.6577 31.5861C17.7978 31.4832 17.9262 31.3679 18.0451 31.2409C18.2407 31.0556 18.4596 30.8367 18.6332 30.6557C18.5924 30.8243 18.545 31.0293 18.4858 31.2701C19.6052 30.8797 20.1152 30.2004 20.3407 29.7334C20.3896 29.9078 20.4355 31.0724 20.4421 31.0855C20.6347 30.9323 20.9324 30.5682 21.163 30.2697L21.2455 30.9345C23.0806 29.3766 23.236 27.7224 23.236 27.7224L23.8993 27.027L24.1364 26.7775L24.3999 26.5024C24.4436 26.4571 25.463 25.3706 25.4856 23.653C25.4856 23.5523 25.4856 23.4487 25.479 23.3465C25.7848 23.6063 26.2365 23.9426 26.8888 24.3272C26.5436 23.0765 26.2532 21.8164 26.2357 21.7405C26.2262 21.6967 26.2175 21.6529 26.2102 21.6099C26.378 21.7587 26.5998 21.9528 26.8888 22.2024C26.9946 20.9904 26.9413 20.0104 26.8268 19.2457C26.7297 18.4168 26.5239 17.7338 26.2087 17.1975Z" fill="#010101"/>
</g>
<path d="M9.9975 12.8723C9.99094 12.9096 9.7662 14.1048 8.53597 14.9191C7.28676 15.7466 7.34951 16.8929 7.34951 16.8929C7.34951 16.8929 6.94746 15.4182 8.11202 14.2405C7.43489 14.7418 6.57241 15.0475 6.54614 15.057C6.587 15.0249 7.97412 13.9975 8.59945 12.7337C8.59945 12.7337 8.74319 13.5728 8.55786 14.304C9.57575 13.8457 9.9851 12.9015 9.9975 12.8723Z" fill="#DFAF67"/>
<path d="M13.767 29.9301C13.7342 29.9192 12.6754 29.5492 12.7017 27.1654C12.7301 24.7436 12.0435 23.973 12.0435 23.973C12.7338 26.7954 11.5138 29.4858 11.4802 29.558C11.4904 29.4843 11.864 26.7677 10.8344 24.8851C11.1227 26.2503 10.4638 27.1099 10.7243 28.775C9.91431 27.5784 10.4222 24.7574 9.88731 23.4914C10.0376 25.212 9.43419 26.9866 9.43419 26.9866C9.43419 26.9866 9.43419 24.3721 8.7607 22.7296C8.31414 24.2846 8.90882 25.8556 8.92706 25.8986C8.8986 25.8687 7.92668 24.818 8.10326 23.2025C8.28203 21.5651 8.02008 20.4501 8.02008 20.4501C8.02008 20.4501 7.97921 21.3177 7.23714 22.267C7.77345 20.0378 7.25173 19.16 7.25173 19.16C6.81173 20.1925 6.68696 20.8434 6.68696 20.8434C6.54467 16.7988 8.36083 16.8104 8.36083 16.8104C8.36083 16.8104 7.51295 17.9933 7.69537 19.16C8.62862 16.8243 10.5783 16.5463 10.6389 16.5383C9.61587 17.2548 9.21747 18.0925 9.19339 18.1436C9.22623 18.0991 9.69103 17.4745 10.7009 17.0104C9.34225 18.0713 9.36341 19.5613 9.36341 19.5613L9.36706 19.5562C9.41375 19.4855 9.92234 18.7207 10.6651 18.1392L10.6681 18.1363C9.44951 19.6051 9.63193 21.3097 9.63193 21.3097C9.63193 21.3097 9.98509 19.9145 10.6805 19.0681C9.93912 20.8616 10.5506 22.7508 10.5623 22.788C10.5623 22.788 10.5674 22.5107 10.6104 22.1233C10.6104 22.1203 10.6104 22.1174 10.6104 22.1145C10.679 21.5074 10.841 20.6311 11.2219 20.0977C10.8023 22.4239 11.7815 24.0861 11.7815 24.0861C11.7815 24.0861 11.7815 22.7355 11.4393 21.6606C13.2044 23.7278 12.9731 26.7392 12.9731 26.7392C12.9731 26.7392 13.1103 26.2438 13.3299 25.8724C12.8067 28.8896 13.7363 29.898 13.767 29.9301Z" fill="#DFAF67"/>
<path d="M11.3949 12.0033C11.3949 12.0033 10.4967 11.7457 9.58676 11.9325C10.0063 12.0376 10.1253 12.12 10.1253 12.12C10.1253 12.12 9.2387 12.0967 9.12196 13.2773C8.61848 12.0726 8.89795 11.664 8.89795 11.664L8.15149 11.8858C8.15149 11.8858 9.18471 10.5147 10.6718 10.9394C10.6718 10.9394 10.2157 10.0507 9.30656 9.83978C10.8236 9.5479 12.2005 10.1674 11.3949 12.0033Z" fill="#DFAF67"/>
<path d="M14.5229 16.4522C14.4981 16.4661 13.9808 16.7616 13.5145 16.6485C13.049 16.5361 12.7462 15.9159 12.7374 15.8962L13.5831 16.1596V16.4595L13.6087 16.4354L13.8254 16.2348L14.5229 16.4515V16.4522Z" fill="#DFAF67"/>
<path d="M14.4289 28.4861C14.4106 28.9013 14.4748 29.3026 14.6222 29.6908C14.6864 29.8601 14.7682 30.0199 14.8688 30.1709C14.4026 29.8695 14.1611 29.3945 14.0392 28.9341C13.9298 28.4963 13.8962 28.0534 13.9392 27.6046C14.0224 28.4956 14.2318 28.8597 14.2318 28.8597C14.2318 28.8597 14.1881 28.1796 14.326 27.7206C14.4719 28.3467 15.122 29.3413 15.1425 29.3734C15.0374 28.964 15.1461 28.3963 15.1461 28.3963C15.1461 28.3963 15.1512 28.4437 15.1644 28.5299C15.2694 29.1815 15.4701 29.8031 15.7656 30.3935C14.6653 29.6353 14.442 28.5554 14.4296 28.4897C14.4296 28.4883 14.4289 28.4875 14.4289 28.4861Z" fill="#DFAF67"/>
<path d="M14.523 9.26122C14.8484 9.4254 15.0987 9.66765 15.2738 9.98798C15.2541 9.97777 14.6303 9.6516 13.6277 9.42978C14.2647 10.0675 14.5675 10.5097 14.5675 10.5097C14.5675 10.5097 13.67 9.89094 12.682 9.64138C11.6941 9.39183 11.67 8.68185 11.67 8.68185C11.67 8.68185 12.1676 9.08245 13.2454 9.02845L12.7667 8.74242C12.7667 8.74242 14.361 8.54175 15.3125 9.00364C14.8784 8.56875 14.7682 8.38925 14.7616 8.38049C14.7959 8.38998 16.2852 8.83071 16.3114 10.3747C16.3114 10.3747 15.5796 9.27581 14.523 9.26122Z" fill="#DFAF67"/>
<path d="M16.8842 19.5614C16.9762 19.4869 17.0805 19.4417 17.1973 19.4257C17.3133 19.4089 17.4264 19.4235 17.5351 19.4694C17.5351 19.4694 17.4337 19.1031 16.9441 19.1673C16.4545 19.2316 16.3114 19.2038 16.3114 19.2038C16.3114 19.2038 16.1684 19.2308 15.6788 19.1673C15.1892 19.1031 15.0885 19.4694 15.0885 19.4694C15.1972 19.4235 15.3096 19.4089 15.4263 19.4249C15.5431 19.4417 15.6474 19.4869 15.7394 19.5614C16.0692 19.8138 16.3129 19.7956 16.3129 19.7956C16.3129 19.7956 16.5551 19.8138 16.8842 19.5614Z" fill="white"/>
<path d="M17.3148 22.7289L17.2396 22.4144L17.2082 22.5523C16.8201 22.499 16.3115 22.5523 16.3115 22.5523C16.3115 22.5523 15.8029 22.499 15.4154 22.5523L15.3833 22.4144L15.3082 22.7289C15.2994 22.7208 15.1367 22.5669 15.1943 22.2028C15.1943 22.2028 15.4526 22.3027 16.3144 22.2122C17.1732 22.3027 17.4315 22.2028 17.4315 22.2028C17.4884 22.5764 17.3148 22.7289 17.3148 22.7289Z" fill="white"/>
<path d="M17.3979 27.7039C17.7364 27.18 17.6139 26.4532 17.6139 26.4532C17.6139 26.4532 17.5088 27.995 16.3136 27.995C15.1184 27.995 15.0133 26.4532 15.0133 26.4532C15.0133 26.4532 14.8907 27.18 15.2293 27.7039C13.0388 26.9939 13.867 25.0004 13.867 25.0004C13.867 25.0004 13.991 25.6688 14.5718 25.4878C14.1158 24.7866 14.3114 23.9037 14.3114 23.9037C14.631 24.5801 15.025 24.9493 15.2614 25.1259C15.8838 24.8377 16.3143 24.888 16.3143 24.888C16.3143 24.888 16.7455 24.8377 17.3665 25.1259C17.6029 24.9493 17.9969 24.5801 18.3165 23.9037C18.3165 23.9037 18.5121 24.7866 18.056 25.4878C18.6369 25.6688 18.7609 25.0004 18.7609 25.0004C18.7609 25.0004 19.5862 26.9939 17.3979 27.7039Z" fill="#DFAF67"/>
<path d="M23.9599 16.3004C22.8369 15.2394 22.9646 12.9898 20.4122 13.0533C20.9332 13.4021 21.1886 14.1157 21.2054 14.1654C21.1638 14.1077 20.3392 12.9876 18.8376 12.8818L18.8025 12.8402C18.3801 12.3528 17.7752 12.3696 17.2629 12.544C17.3155 12.382 17.5008 12.0383 18.1626 11.7756C19.0587 11.4196 19.2579 11.1977 19.2579 11.1977C19.2579 11.1977 19.4111 11.834 18.3268 12.3404C18.3268 12.3404 19.5811 12.4944 20.3071 11.9478C20.0459 12.4141 19.4972 12.7023 18.8565 12.6637C18.8565 12.6637 21.8526 13.6604 20.5953 10.7986C20.7398 11.54 19.7657 11.807 19.7387 11.8143C19.7672 11.7946 20.4706 11.2802 19.611 9.98865C19.4556 10.857 17.4089 10.8475 16.8828 12.3411C16.8149 11.2379 17.7598 10.2521 17.7598 10.2521C17.7598 10.2521 16.6281 10.5549 16.3122 11.7472C16.3122 11.7465 16.3122 11.7457 16.3122 11.745C15.9955 10.5571 14.8659 10.2543 14.8659 10.2543C14.8659 10.2543 15.8109 11.2408 15.743 12.3433C15.2155 10.8519 13.1716 10.8606 13.0155 9.99303C12.1559 11.2846 12.8593 11.7983 12.8878 11.8187C12.8593 11.8114 11.8867 11.5436 12.0312 10.803C10.79 13.6276 13.6941 12.6929 13.7685 12.668C13.1264 12.7067 12.5777 12.4185 12.3172 11.953C13.0439 12.4988 14.2975 12.3448 14.2975 12.3448C13.214 11.8391 13.3672 11.2021 13.3672 11.2021C13.3672 11.2021 13.5657 11.4239 14.4624 11.78C15.1257 12.0427 15.3096 12.3864 15.3614 12.5484C14.8492 12.3747 14.2443 12.3572 13.8225 12.8446L13.7875 12.8862C12.2851 12.9928 11.462 14.1121 11.4197 14.1697C11.4365 14.1201 11.6911 13.4065 12.2121 13.0584C9.66117 12.9949 9.7874 15.2424 8.66589 16.3041C10.1902 15.8838 11.1577 14.1281 11.2227 14.0085C11.1935 14.0792 10.9191 14.7542 10.8892 15.4773C11.4277 14.439 12.2449 14.0734 12.6988 13.9472C12.2924 14.3003 11.9166 14.6054 11.6203 14.9257C11.5211 15.192 11.4219 15.9356 11.6386 16.1822C11.6627 16.2107 11.6919 16.2325 11.7269 16.2464C12.0545 16.3792 12.4945 16.2048 12.4945 16.2048C12.4945 16.2048 12.4201 15.7225 12.0122 15.632C12.2457 15.4832 12.701 15.3088 13.7021 15.9129C14.7025 16.5178 15.3745 16.083 15.5708 15.8181C15.7671 15.5532 15.8145 15.1227 15.8145 15.1227C15.9116 15.3533 15.9648 15.5941 15.9729 15.8444C14.8827 16.5711 14.925 17.3884 14.925 17.3884C14.925 17.3884 14.8929 17.176 14.7025 16.9053C14.3822 17.1731 14.3909 17.705 14.4318 18.0042L14.434 18.0232C14.4318 18.0159 14.4289 18.0079 14.4259 17.9991C14.3311 17.6977 14.2187 17.2103 14.3566 16.8834C14.3661 16.8601 14.3771 16.8375 14.3895 16.8156C14.3479 16.8287 14.3004 16.8396 14.2545 16.8484C13.7729 16.9411 13.1826 16.8396 13.1826 16.8396L13.2928 17.0067C12.9111 16.8367 12.5726 16.423 12.5726 16.423C12.5726 16.423 11.1628 17.2928 11.2278 17.9298C11.292 18.5661 11.7838 19.1017 11.7838 19.1017C11.7838 19.1017 11.7728 18.9849 11.7356 18.5923C11.9823 19.1425 12.1742 19.7321 12.1858 19.7686C12.288 19.4782 12.3741 19.1827 12.4449 18.8828C12.5244 18.5062 12.3712 17.6043 12.3712 17.6043C12.3712 17.6043 12.8002 18.3362 13.5204 18.2888C13.049 18.4902 12.62 19.2118 12.62 19.2118C12.62 19.2118 12.6463 19.233 13.9546 19.627L13.9268 19.6248C13.6846 19.5978 12.574 19.4103 12.574 19.4103L12.7652 20.0838L14.4916 20.5822C13.9035 20.5931 12.8229 20.4815 12.8229 20.4815L13.0403 20.8478L14.809 21.198C14.2194 21.2571 13.6306 21.2608 13.0403 21.2083C13.3081 21.4272 13.5919 21.6213 13.8933 21.7905C13.8415 22.1269 13.7875 23.0682 14.6244 23.7519C14.62 22.9208 14.7711 22.3152 14.8813 21.9839C15.4519 21.916 16.1947 21.6694 16.1122 21.0287C16.0123 20.2458 15.2979 20.2633 14.5843 19.9218C13.8699 19.5811 14.2464 18.7456 14.2464 18.7456C14.2552 18.7704 14.423 19.2593 14.5755 19.2702C14.7273 19.2812 15.0053 19.1695 15.2169 18.5829C15.5518 18.998 16.31 18.8849 16.31 18.8849C16.31 18.8849 17.0681 18.9966 17.403 18.5829C17.6146 19.1695 17.8883 19.2812 18.0444 19.2702C18.2006 19.2593 18.3735 18.7448 18.3735 18.7448C18.3735 18.7448 18.7529 19.5774 18.0393 19.9182C17.3249 20.2589 16.6106 20.2422 16.5106 21.0251C16.4274 21.6665 17.171 21.9139 17.7416 21.9803C17.8525 22.313 18.0035 22.9172 17.9984 23.7483C18.8368 23.0638 18.7836 22.1218 18.731 21.7847C19.0324 21.6154 19.317 21.422 19.584 21.2031C18.9944 21.2557 18.4049 21.252 17.816 21.1922L19.584 20.8419L19.8015 20.4764C19.8015 20.4764 18.7245 20.5902 18.1349 20.5793L19.8613 20.0809L20.0517 19.4074C20.0517 19.4074 18.8281 19.6154 18.6697 19.6248C19.9773 19.2323 20.0036 19.2096 20.0036 19.2096C20.0036 19.2096 19.5753 18.488 19.1039 18.2866C19.8241 18.334 20.2524 17.6022 20.2524 17.6022C20.2524 17.6022 20.0992 18.504 20.1787 18.8806C20.2495 19.1805 20.3356 19.476 20.4377 19.7664C20.4377 19.7664 20.634 19.1571 20.8887 18.5887C20.8515 18.9813 20.8405 19.098 20.8405 19.098C20.8405 19.098 21.333 18.5624 21.3965 17.9261C21.46 17.2891 20.0517 16.4208 20.0517 16.4208C20.0517 16.4208 19.7132 16.836 19.3315 17.0045L19.4432 16.8345C19.4432 16.8345 18.7332 16.9564 18.2356 16.8105C18.426 17.1432 18.2947 17.6985 18.1911 18.0188C18.2327 17.7233 18.2509 17.1724 17.9233 16.8966C17.7328 17.1673 17.7007 17.3796 17.7007 17.3796C17.7007 17.3796 17.7423 16.5624 16.6522 15.8356C16.6609 15.5853 16.7142 15.3445 16.8113 15.1139C16.8113 15.1139 16.8587 15.5437 17.0542 15.8093C17.2505 16.0749 17.9233 16.5091 18.9237 15.9042C19.924 15.2993 20.3801 15.4751 20.6129 15.6233C20.2057 15.7137 20.1313 16.1961 20.1313 16.1961C20.1313 16.1961 20.5705 16.3712 20.8989 16.2377C21.2265 16.1048 21.1163 15.2139 21.0047 14.9169C20.7077 14.5973 20.3319 14.2916 19.927 13.9384C20.3801 14.0632 21.1966 14.4288 21.7366 15.4686C21.7066 14.7454 21.4323 14.0705 21.4031 13.9997C21.4666 14.1216 22.4349 15.8779 23.9599 16.3004ZM16.3114 14.9614C16.3114 14.9614 15.7955 14.3412 15.6897 13.8954C15.8751 14.1821 16.3114 14.3573 16.3114 14.3573C16.3114 14.3573 16.7485 14.1821 16.9338 13.8954C16.8273 14.3412 16.3114 14.9614 16.3114 14.9614Z" fill="white"/>
<path d="M24.0656 14.3061C23.0288 13.8406 22.6252 12.8738 22.6252 12.8738C22.6252 12.8738 22.8368 14.0945 24.0868 14.922C25.3367 15.7494 25.2725 16.895 25.2725 16.895C25.2725 16.895 25.6753 15.4203 24.51 14.2426C25.1988 14.752 26.0773 15.0599 26.0773 15.0599C26.0773 15.0599 24.6588 14.0208 24.0233 12.7358C24.0233 12.7337 23.8803 13.5728 24.0656 14.3061Z" fill="#DFAF67"/>
<path d="M24.2619 16.8104C24.2619 16.8104 25.1098 17.9933 24.9281 19.16C23.9796 16.7878 21.9824 16.5383 21.9824 16.5383C23.039 17.2774 23.4294 18.1458 23.4294 18.1458C23.4294 18.1458 22.969 17.492 21.9204 17.0096C23.2798 18.0713 23.2579 19.5613 23.2579 19.5613C23.2579 19.5613 22.734 18.747 21.9525 18.1355C23.1725 19.6044 22.9894 21.3089 22.9894 21.3089C22.9894 21.3089 22.6362 19.9152 21.9408 19.0681C22.6895 20.8799 22.0583 22.7887 22.0583 22.7887C22.0583 22.7887 22.0262 20.9762 21.398 20.0969C21.8183 22.4239 20.8383 24.0854 20.8383 24.0854C20.8383 24.0854 20.8383 22.7347 21.1812 21.6606C19.4154 23.7271 19.6467 26.7385 19.6467 26.7385C19.6467 26.7385 19.5096 26.2438 19.2899 25.8724C19.8255 28.9407 18.8565 29.9309 18.8565 29.9309C18.8565 29.9309 19.9488 29.5872 19.9211 27.1654C19.8934 24.7443 20.5807 23.973 20.5807 23.973C19.8802 26.8356 21.144 29.5595 21.144 29.5595C21.144 29.5595 20.7456 26.794 21.7891 24.8851C21.4994 26.2503 22.1597 27.1106 21.8992 28.775C22.7092 27.5784 22.2013 24.7574 22.7369 23.4921C22.5859 25.212 23.19 26.9866 23.19 26.9866C23.19 26.9866 23.19 24.3729 23.8628 22.7296C24.3159 24.3079 23.6972 25.8994 23.6972 25.8994C23.6972 25.8994 24.699 24.8406 24.521 23.2025C24.3429 21.5651 24.6042 20.4508 24.6042 20.4508C24.6042 20.4508 24.6457 21.3177 25.3864 22.267C24.8508 20.0386 25.3725 19.16 25.3725 19.16C25.8125 20.1932 25.9373 20.8441 25.9373 20.8441C26.0781 16.801 24.2619 16.8104 24.2619 16.8104Z" fill="#DFAF67"/>
<path d="M23.0368 11.9324C22.6166 12.0382 22.4998 12.12 22.4998 12.12C22.4998 12.12 23.3871 12.0966 23.5038 13.2772C24.0051 12.0725 23.7257 11.6639 23.7257 11.6639L24.4714 11.8865C24.4714 11.8865 23.4382 10.5154 21.9511 10.9393C21.9511 10.9393 22.4071 10.0506 23.3163 9.84043C21.7993 9.54929 20.4224 10.1673 21.2273 12.0032C21.2273 12.0032 22.1248 11.7456 23.0368 11.9324Z" fill="#DFAF67"/>
<path d="M17.2323 24.5757C16.6748 24.4925 16.31 24.5392 16.31 24.5392C16.31 24.5392 15.9458 24.4911 15.3884 24.5757C15.1943 24.2962 15.2184 24.0773 15.2184 24.0773L15.4672 24.2714C15.7094 24.2473 16.31 24.2415 16.31 24.2415C16.31 24.2415 16.9112 24.2473 17.1535 24.2714L17.4023 24.0773C17.4023 24.0773 17.4271 24.2962 17.2323 24.5757Z" fill="white"/>
<path d="M18.7988 16.2348L18.1005 16.4522C18.1005 16.4522 18.6317 16.7652 19.1089 16.6499C19.5869 16.5339 19.886 15.8962 19.886 15.8962L19.0396 16.1596V16.4595L18.7988 16.2348Z" fill="#DFAF67"/>
<path d="M18.3931 28.8589C18.3931 28.8589 18.4376 28.1781 18.299 27.7192C18.1501 28.3555 17.4825 29.3734 17.4825 29.3734C17.5875 28.964 17.4788 28.3941 17.4788 28.3941C17.3839 29.0954 17.1774 29.7608 16.8586 30.392C17.9947 29.6098 18.1953 28.4868 18.1953 28.4868C18.1953 28.4868 18.2712 29.4004 17.7561 30.1709C18.9126 29.4237 18.685 27.6031 18.685 27.6031C18.6003 28.4934 18.3931 28.8589 18.3931 28.8589Z" fill="#DFAF67"/>
<path d="M18.1006 9.26182C17.5562 9.54348 17.349 9.98785 17.349 9.98785C17.349 9.98785 17.9765 9.65585 18.9951 9.42965C18.3589 10.0674 18.0553 10.5096 18.0553 10.5096C18.0553 10.5096 18.9521 9.89081 19.9408 9.64125C20.9288 9.39243 20.9529 8.68172 20.9529 8.68172C20.9529 8.68172 20.4552 9.08305 19.3775 9.02832L19.8562 8.74229C19.8562 8.74229 18.2618 8.54235 17.3103 9.00424C17.7583 8.55476 17.862 8.37817 17.862 8.37817C17.862 8.37817 16.3384 8.81088 16.3121 10.3724C16.3114 10.3753 17.0433 9.27568 18.1006 9.26182Z" fill="#DFAF67"/>
<path d="M23.0309 3.51124L20.0035 4.76994L20.6515 6.20012L18.9572 6.98234L16.9418 5.91409L18.2363 4.65611L16.3136 1.87238L14.3916 4.65611L15.6831 5.91409L13.6663 6.98234L11.972 6.20012L12.6192 4.76994L9.59253 3.51124L10.1157 4.6999L11.2825 5.27561L10.7374 6.1111L11.667 8.22134H11.7224C12.898 7.60987 14.52 7.23116 16.3114 7.23116C18.1035 7.23116 19.7255 7.60987 20.9003 8.22134H20.9558L21.8854 6.1111L21.3403 5.27561L22.507 4.6999L23.0309 3.51124ZM15.6277 4.33214L16.3114 3.38282L16.9951 4.33214L16.3114 4.89326L15.6277 4.33214Z" fill="#DFAF67"/>
<path d="M11.4802 29.5579C11.4904 29.485 11.864 26.7683 10.8344 24.885C11.1226 26.2503 10.4637 27.1106 10.7242 28.775C9.91428 27.5783 10.4221 24.7573 9.88728 23.4921C10.0376 25.2119 9.43415 26.9865 9.43415 26.9865C9.43415 26.9865 9.43415 24.3728 8.76066 22.7295C8.3141 24.2845 8.90878 25.8562 8.92703 25.8986C8.89857 25.8694 7.92664 24.8186 8.10322 23.2024C8.28199 21.5657 8.02004 20.4508 8.02004 20.4508C8.02004 20.4508 7.97918 21.3176 7.2371 22.2669C7.77341 20.0385 7.25169 19.1599 7.25169 19.1599C6.8117 20.1932 6.68692 20.844 6.68692 20.844C6.5461 16.8009 8.36226 16.8104 8.36226 16.8104C8.36226 16.8104 7.31882 17.0949 7.02768 19.0125C7.16194 18.8316 7.26775 18.6353 7.34436 18.4237C7.34436 18.4237 7.88067 20.075 7.60923 21.214C7.80697 20.7251 7.94196 20.2187 8.01347 19.6963C8.01347 19.6963 8.75555 20.8886 8.46587 22.5085C8.62567 22.2122 8.73001 21.897 8.77671 21.5635C8.77671 21.5635 9.76104 23.3812 9.5436 25.3024C9.8238 24.1911 9.67859 22.7295 9.67859 22.7295C9.67859 22.7295 10.4944 23.4417 10.4141 25.5512C10.5973 24.9945 10.6768 24.4231 10.6527 23.8379C10.6527 23.8379 12.0106 25.614 11.8246 27.5455C12.1858 26.9055 12.2018 24.9398 12.0442 23.9729C12.7337 26.7961 11.5137 29.4857 11.4802 29.5579Z" fill="#BA8238"/>
<path d="M9.36503 19.5606C9.31469 19.365 9.35336 18.8053 9.52118 18.1099C9.03741 18.4879 8.66309 19.0658 8.66309 19.0658C8.96444 17.1358 10.5887 16.5565 10.639 16.5389C9.61604 17.2555 9.21764 18.0932 9.19356 18.1442C9.22639 18.0997 9.6912 17.4751 10.7011 17.011C9.34387 18.0713 9.36503 19.5606 9.36503 19.5606Z" fill="#BA8238"/>
<path d="M10.563 22.788C10.563 22.788 10.5681 22.5114 10.6111 22.1232C10.5827 22.5173 10.563 22.788 10.563 22.788Z" fill="#AF7127"/>
<path d="M10.5629 22.7879C10.5476 22.7653 10.0609 22.0604 10.0405 20.8893C9.77855 21.4621 9.5611 22.3924 9.5611 22.3924C8.90878 19.7787 10.5783 18.2186 10.6666 18.1384L10.6695 18.1362C9.45019 19.6043 9.63261 21.3088 9.63261 21.3088C9.63261 21.3088 9.98505 19.9144 10.6804 19.068C9.93908 20.8615 10.5505 22.7507 10.5629 22.7879Z" fill="#BA8238"/>
<path d="M17.3979 27.7038C17.7364 27.1799 17.6139 26.4531 17.6139 26.4531C17.6139 26.4531 17.5088 27.9949 16.3136 27.9949C15.1184 27.9949 15.0133 26.4531 15.0133 26.4531C15.0133 26.4531 14.8907 27.1799 15.2293 27.7038C13.0388 26.9938 13.867 25.0003 13.867 25.0003C13.867 25.0003 13.8188 26.4772 14.7513 27.1974C14.7032 26.0547 14.9316 25.4877 14.9316 25.4877C14.9316 25.4877 14.9038 26.7129 16.3136 26.7129C17.7233 26.7129 17.6956 25.4877 17.6956 25.4877C17.6956 25.4877 17.924 26.0547 17.8758 27.1974C18.8083 26.4772 18.7602 25.0003 18.7602 25.0003C18.7602 25.0003 19.5862 26.9938 17.3979 27.7038Z" fill="#BA8238"/>
<path d="M16.3114 24.3882V24.5392C16.3114 24.5392 15.9473 24.4911 15.3898 24.5757C15.1957 24.2962 15.2198 24.0773 15.2198 24.0773C15.2198 24.0773 15.3191 24.3335 15.4606 24.4407C15.565 24.3831 16.3114 24.3882 16.3114 24.3882Z" fill="#010101" fill-opacity="0.298"/>
<path d="M16.3115 22.2115V22.3267C16.3115 22.3267 15.6562 22.3734 15.3082 22.31C15.2666 22.5858 15.3052 22.7193 15.3082 22.7288C15.2994 22.7208 15.1367 22.5661 15.1943 22.202C15.1943 22.202 15.4526 22.3027 16.3115 22.2115Z" fill="#010101" fill-opacity="0.298"/>
<path d="M14.62 23.7482C13.7824 23.0645 13.8364 22.124 13.8882 21.7868C13.5875 21.6176 13.303 21.4235 13.0352 21.2053C13.6255 21.2571 14.2151 21.2542 14.8039 21.1943L13.0352 20.8441L12.8185 20.4785C12.8185 20.4785 13.8962 20.5894 14.4865 20.5792L12.7601 20.0808L12.5696 19.4066C12.5696 19.4066 13.6795 19.5949 13.9217 19.6211L12.8163 19.6671L13.3059 19.9845L15.2133 20.6434L13.7057 20.7616L15.3964 21.1469C15.3964 21.1469 15.1731 21.2841 14.2107 21.6139C13.786 22.8339 14.5821 23.7059 14.62 23.7482Z" fill="#010101" fill-opacity="0.298"/>
<path d="M14.1275 17.2278C14.0305 17.2015 13.4248 16.998 13.4248 16.998C13.4248 16.998 13.4423 17.0775 13.5708 17.3606C13.2118 17.1446 12.8783 16.8936 12.5711 16.6083C12.5711 16.6083 11.9531 17.0067 11.697 17.4183C11.4408 17.8298 11.6554 18.3216 11.6554 18.3216L11.7349 17.9407C12.0465 18.6376 12.1771 19.7182 12.1822 19.7664C12.1705 19.7299 11.9786 19.1403 11.7327 18.5909C11.7692 18.9834 11.7801 19.1002 11.7801 19.1002C11.7801 19.1002 11.2876 18.5639 11.2241 17.9276C11.1606 17.2913 12.5696 16.4208 12.5696 16.4208C12.5696 16.4208 12.9082 16.836 13.2898 17.0045L13.1782 16.8345C13.1782 16.8345 13.8882 16.9564 14.3858 16.8104C14.199 17.1359 14.3201 17.6715 14.4223 17.9947C14.3946 17.9641 14.2428 17.7853 14.1275 17.2278Z" fill="#010101" fill-opacity="0.298"/>
<path d="M16.3114 18.6019V18.8857C16.3114 18.8857 15.5533 18.9973 15.2183 18.5836C15.0067 19.1703 14.7331 19.2819 14.5769 19.271C14.4208 19.26 14.2566 18.7726 14.2486 18.7463C14.2581 18.7631 14.431 19.0645 14.7236 18.9849C15.025 18.9039 15.1797 17.9006 15.1797 17.9006C15.1797 17.9006 15.392 18.5435 16.3114 18.6019Z" fill="#010101" fill-opacity="0.298"/>
<path d="M12.736 15.8962L13.5817 16.1596V16.4223C13.2607 16.2603 12.7557 15.91 12.7368 15.8969L12.736 15.8962Z" fill="#BA8238"/>
<path d="M14.523 16.4524C14.4989 16.4568 14.0137 16.5591 13.7678 16.4992C13.7123 16.4831 13.6598 16.4619 13.6087 16.4349L13.8254 16.2347L14.5223 16.451L14.523 16.4524Z" fill="#BA8238"/>
<path d="M14.2523 16.8434C14.2982 16.8346 14.3435 16.8236 14.3872 16.8104C14.3748 16.8324 14.3639 16.8551 14.3537 16.8786L14.2523 16.8434Z" fill="#BA8238"/>
<path d="M15.8117 15.1162C15.8117 15.1162 15.7635 15.5452 15.568 15.8108C15.3724 16.0764 14.6975 16.5106 13.6993 15.9057C12.7003 15.3015 12.2428 15.4766 12.0101 15.6255C12.4172 15.7152 12.4917 16.1983 12.4917 16.1983C12.4917 16.1983 12.0517 16.3727 11.724 16.2399C11.689 16.2253 11.6591 16.2041 11.6343 16.1757L11.6321 16.172C11.6321 16.172 11.608 15.4146 11.9386 14.9615C12.2691 14.5084 13.5176 13.9852 13.5176 13.9852C13.5205 14.1362 13.5424 14.2851 13.5825 14.431C13.6219 14.5777 13.6796 14.7163 13.754 14.8484C13.8284 14.9797 13.9174 15.1001 14.0225 15.2096C14.1269 15.319 14.2429 15.4146 14.3713 15.4949C13.9722 15.4117 13.6 15.2614 13.2549 15.0447C13.9153 15.9261 15.2104 16.4318 15.8117 15.1162Z" fill="#010101" fill-opacity="0.298"/>
<path d="M13.7853 12.8796C13.1278 13.0292 12.0705 13.5283 11.1796 14.5768C11.1738 14.166 11.4284 13.4553 11.4372 13.4327C11.4197 13.4414 10.9111 13.7289 10.2223 14.8132C9.5342 15.8975 8.69069 16.2865 8.6637 16.3003C9.78594 15.2386 9.65897 12.9905 12.2106 13.054C11.6897 13.4028 11.4343 14.1164 11.4182 14.166C11.4605 14.1062 12.2836 12.9861 13.7853 12.8796Z" fill="#010101" fill-opacity="0.298"/>
<path d="M12.8848 11.8136C12.8848 11.8136 12.5309 11.8355 12.0077 11.5976C11.9398 12.1142 12.1981 12.3791 12.1981 12.3791C12.5331 12.8862 13.7151 12.6724 13.7662 12.6629C13.6911 12.6877 10.7877 13.6217 12.0289 10.7979C11.8829 11.5392 12.8563 11.8063 12.8848 11.8136Z" fill="#010101" fill-opacity="0.298"/>
<path d="M15.7393 12.339C15.7181 12.3039 15.3664 11.7311 14.3172 11.2641C13.2365 10.7825 13.0796 10.4936 13.0796 10.4936C12.7177 11.0241 12.8848 11.8136 12.8848 11.8136C12.8563 11.7939 12.1529 11.2795 13.0125 9.98792C13.1686 10.8577 15.2132 10.8475 15.7393 12.339Z" fill="#010101" fill-opacity="0.298"/>
<path d="M15.438 10.7395C15.9028 11.5181 15.7408 12.3404 15.7408 12.3404C15.8086 11.2379 14.8637 10.2513 14.8637 10.2513C14.8637 10.2513 15.9932 10.5542 16.3107 11.7421C16.3107 11.7428 16.3107 11.7435 16.3107 11.7443C16.2961 11.7165 15.902 11.0044 15.438 10.7395Z" fill="#010101" fill-opacity="0.298"/>
<path d="M14.6222 29.6916C14.6864 29.8601 14.7681 30.0199 14.8688 30.171C14.4026 29.8696 14.161 29.3946 14.0392 28.9341C14.1844 29.1297 14.4361 29.4639 14.6222 29.6916Z" fill="#BA8238"/>
<path d="M15.7649 30.392C14.6653 29.6353 14.442 28.5553 14.4296 28.4897C14.4296 28.4882 14.4296 28.4875 14.4296 28.486C14.4296 28.486 14.782 29.3084 15.3957 29.8629C15.295 29.4222 15.2176 28.9771 15.1643 28.5283C15.2694 29.18 15.4701 29.8009 15.7649 30.392Z" fill="#BA8238"/>
<path d="M7.34951 16.8929C7.34951 16.8929 6.94746 15.4182 8.11202 14.2405C7.43489 14.7418 6.57241 15.0475 6.54614 15.057C6.587 15.0249 7.97412 13.9975 8.59945 12.7337C8.41484 14.2595 8.21783 14.6367 8.21783 14.6367L8.66293 14.547C7.13864 15.238 7.34951 16.8929 7.34951 16.8929Z" fill="#BA8238"/>
<path d="M10.9782 11.591C9.62105 11.3298 9.0001 12.0514 9.0001 12.0514C9.16939 12.05 9.33648 12.0675 9.50139 12.104C8.96654 12.3645 9.11247 13.2357 9.11977 13.2766C8.61848 12.0726 8.89795 11.664 8.89795 11.664L8.15149 11.8858C8.15149 11.8858 9.18471 10.5147 10.6718 10.9394C10.6718 10.9394 10.2157 10.0506 9.30656 9.83977C10.6981 9.66319 11.2285 10.6599 10.9782 11.591Z" fill="#BA8238"/>
<path d="M12.8192 9.17503L13.5919 9.66684L12.7995 9.4151C12.0071 9.16336 11.67 8.6825 11.67 8.6825C11.67 8.6825 12.1676 9.08309 13.2454 9.02909L12.7667 8.74379C12.7667 8.74379 13.7277 8.85251 14.4311 9.44501C13.8181 9.13928 12.8192 9.17503 12.8192 9.17503Z" fill="#BA8238"/>
<path d="M21.1391 29.5579C21.1296 29.485 20.7567 26.7691 21.7856 24.885C21.4973 26.2503 22.1562 27.1106 21.895 28.775C22.7057 27.5783 22.1978 24.7573 22.7327 23.4921C22.5816 25.2119 23.1858 26.9865 23.1858 26.9865C23.1858 26.9865 23.1858 24.3728 23.8593 22.7295C24.3059 24.2845 23.7112 25.8562 23.6929 25.8986C23.7214 25.8694 24.6926 24.8186 24.5167 23.2024C24.338 21.5657 24.5992 20.4508 24.5992 20.4508C24.5992 20.4508 24.6408 21.3176 25.3821 22.2669C24.8465 20.0385 25.3683 19.1599 25.3683 19.1599C25.8075 20.1932 25.9323 20.844 25.9323 20.844C26.0739 16.8009 24.2577 16.8104 24.2577 16.8104C24.2577 16.8104 25.3011 17.0949 25.5915 19.0125C25.458 18.8316 25.3529 18.6353 25.2763 18.4237C25.2763 18.4237 24.74 20.075 25.0114 21.214C24.813 20.7251 24.678 20.2187 24.6072 19.6963C24.6072 19.6963 23.8666 20.8886 24.157 22.5085C23.9965 22.2122 23.8929 21.897 23.8454 21.5635C23.8454 21.5635 22.8611 23.3812 23.0785 25.3024C22.7991 24.1911 22.9435 22.7295 22.9435 22.7295C22.9435 22.7295 22.127 23.4417 22.208 25.5512C22.0249 24.9945 21.9454 24.4231 21.9694 23.8379C21.9694 23.8379 20.61 25.614 20.7983 27.5455C20.4364 26.9055 20.4203 24.9398 20.5779 23.9729C19.8862 26.7961 21.1055 29.4857 21.1391 29.5579Z" fill="#BA8238"/>
<path d="M23.255 19.5606C23.3046 19.365 23.2659 18.8053 23.0981 18.1099C23.5826 18.4879 23.9569 19.0658 23.9569 19.0658C23.6556 17.1358 22.0313 16.5565 21.9802 16.5389C23.004 17.2555 23.4024 18.0932 23.4257 18.1442C23.3929 18.0997 22.9281 17.4751 21.9189 17.011C23.2761 18.0713 23.255 19.5606 23.255 19.5606Z" fill="#BA8238"/>
<path d="M22.0562 22.788C22.0562 22.788 22.0518 22.5114 22.008 22.1232C22.0372 22.5173 22.0562 22.788 22.0562 22.788Z" fill="#AF7127"/>
<path d="M22.0568 22.7879C22.0721 22.7653 22.5588 22.0604 22.5793 20.8893C22.8412 21.4621 23.0586 22.3924 23.0586 22.3924C23.711 19.7787 22.0415 18.2186 21.9532 18.1384L21.9503 18.1362C23.1696 19.6043 22.9864 21.3088 22.9864 21.3088C22.9864 21.3088 22.634 19.9151 21.9379 19.068C22.6807 20.8615 22.0685 22.7507 22.0568 22.7879Z" fill="#BA8238"/>
<path d="M15.2242 27.7038C14.8857 27.1799 15.0082 26.4531 15.0082 26.4531C15.0082 26.4531 15.1133 27.9949 16.3085 27.9949C17.503 27.9949 17.6088 26.4531 17.6088 26.4531C17.6088 26.4531 17.7307 27.1799 17.3928 27.7038C19.5833 26.9938 18.7551 25.0003 18.7551 25.0003C18.7551 25.0003 18.8033 26.4772 17.87 27.1974C17.9182 26.0547 17.6905 25.4877 17.6905 25.4877C17.6905 25.4877 17.7183 26.7129 16.3085 26.7129C14.8988 26.7129 14.9265 25.4877 14.9265 25.4877C14.9265 25.4877 14.6981 26.0547 14.7463 27.1974C13.813 26.4772 13.8612 25.0003 13.8612 25.0003C13.8612 25.0003 13.0337 26.9938 15.2242 27.7038Z" fill="#BA8238"/>
<path d="M16.3085 24.3882V24.5392C16.3085 24.5392 16.6726 24.4911 17.2301 24.5757C17.4241 24.2962 17.4001 24.0773 17.4001 24.0773C17.4001 24.0773 17.3001 24.3335 17.1593 24.4407C17.0542 24.3831 16.3085 24.3882 16.3085 24.3882Z" fill="#010101" fill-opacity="0.298"/>
<path d="M16.3085 22.2115V22.3267C16.3085 22.3267 16.963 22.3734 17.3118 22.31C17.3534 22.5858 17.3147 22.7193 17.3118 22.7288C17.3205 22.7208 17.4825 22.5661 17.4249 22.202C17.4256 22.202 17.1673 22.3027 16.3085 22.2115Z" fill="#010101" fill-opacity="0.298"/>
<path d="M17.9984 23.7482C18.8353 23.0645 18.7814 22.124 18.7295 21.7868C19.0309 21.6176 19.3147 21.4235 19.5825 21.2053C18.993 21.2571 18.4034 21.2542 17.8145 21.1943L19.5825 20.8441L19.8 20.4785C19.8 20.4785 18.7201 20.5894 18.1319 20.5792L19.8576 20.0808L20.0488 19.4066C20.0488 19.4066 18.939 19.5949 18.696 19.6211H18.6938L19.8 19.6671L19.3096 19.9845L17.4023 20.6434L18.9098 20.7616L17.2198 21.1469C17.2198 21.1469 17.4431 21.2841 18.4048 21.6139C18.8332 22.8339 18.0378 23.7059 17.9984 23.7482Z" fill="#BA8238"/>
<path d="M18.4924 17.2278C18.5895 17.2015 19.1951 16.998 19.1951 16.998C19.1951 16.998 19.1776 17.0775 19.0492 17.3606C19.4082 17.1446 19.7416 16.8936 20.0488 16.6083C20.0488 16.6083 20.6669 17.0067 20.923 17.4183C21.1791 17.8298 20.9646 18.3216 20.9646 18.3216L20.885 17.9407C20.5735 18.6376 20.4428 19.7182 20.437 19.7664C20.4494 19.7299 20.6406 19.1403 20.8872 18.5909C20.85 18.9834 20.8391 19.1002 20.8391 19.1002C20.8391 19.1002 21.3323 18.5639 21.3958 17.9276C21.4585 17.2913 20.0503 16.4208 20.0503 16.4208C20.0503 16.4208 19.7117 16.836 19.3301 17.0045L19.4417 16.8345C19.4417 16.8345 18.7318 16.9564 18.2341 16.8104C18.4202 17.1359 18.2998 17.6715 18.1976 17.9947C18.2268 17.9641 18.3771 17.7853 18.4924 17.2278Z" fill="#BA8238"/>
<path d="M16.3085 18.6018V18.8857C16.3085 18.8857 17.0659 18.9973 17.4015 18.585C17.6131 19.1724 17.886 19.2841 18.0429 19.2724C18.1991 19.2614 18.3632 18.774 18.3713 18.7477C18.3618 18.7645 18.1888 19.0659 17.8955 18.9871C17.5949 18.9061 17.4395 17.902 17.4395 17.902C17.4395 17.902 17.2279 18.5434 16.3085 18.6018Z" fill="#010101" fill-opacity="0.298"/>
<path d="M19.8861 15.8962L19.0397 16.1596V16.4223C19.3615 16.2603 19.8657 15.91 19.8854 15.8969L19.8861 15.8962Z" fill="#BA8238"/>
<path d="M18.0969 16.4524C18.1203 16.4568 18.6062 16.5591 18.8521 16.4992C18.9076 16.4831 18.9601 16.4619 19.0112 16.4349L18.7945 16.2347L18.0977 16.451L18.0969 16.4524Z" fill="#BA8238"/>
<path d="M18.3677 16.8434C18.3217 16.8346 18.2764 16.8236 18.2327 16.8104C18.2451 16.8324 18.256 16.8551 18.2655 16.8786L18.3677 16.8434Z" fill="#BA8238"/>
<path d="M16.8084 15.1161C16.8084 15.1161 16.8558 15.5451 17.0514 15.8107C17.2477 16.0763 17.9226 16.5105 18.9208 15.9056C19.9197 15.3014 20.3772 15.4765 20.61 15.6254C20.2029 15.7151 20.1284 16.1982 20.1284 16.1982C20.1284 16.1982 20.5677 16.3726 20.896 16.2398C20.9303 16.2252 20.9603 16.204 20.9843 16.1748L20.9865 16.1719C20.9865 16.1719 21.0106 15.4138 20.6801 14.9606C20.3495 14.5075 19.101 13.9843 19.101 13.9843C19.0981 14.1361 19.0762 14.2842 19.0368 14.4302C18.9967 14.5768 18.9398 14.7155 18.8654 14.8468C18.7909 14.9789 18.7019 15.0993 18.5976 15.2087C18.4932 15.3182 18.3765 15.413 18.2488 15.494C18.6479 15.4108 19.0201 15.2605 19.3652 15.0438C18.7048 15.926 17.4089 16.4317 16.8084 15.1161Z" fill="#BA8238"/>
<path d="M18.8339 12.8796C19.492 13.0292 20.5493 13.5283 21.4395 14.5768C21.4461 14.166 21.1907 13.4553 21.1827 13.4327C21.1995 13.4414 21.7088 13.7289 22.3969 14.8132C23.0857 15.8975 23.9314 16.2865 23.9562 16.2981C22.8339 15.2365 22.9609 12.9883 20.4092 13.0518C20.9302 13.4006 21.1849 14.1142 21.2017 14.1638C21.1593 14.1062 20.3363 12.9861 18.8339 12.8796Z" fill="#BA8238"/>
<path d="M19.7351 11.8136C19.7351 11.8136 20.0882 11.8355 20.6122 11.5976C20.68 12.1142 20.4217 12.3791 20.4217 12.3791C20.0868 12.8862 18.904 12.6724 18.8536 12.6629C18.9281 12.6877 21.8322 13.6217 20.591 10.7979C20.7355 11.5392 19.7614 11.8063 19.7351 11.8136Z" fill="#BA8238"/>
<path d="M16.8798 12.339C16.901 12.3039 17.2527 11.7311 18.3012 11.2641C19.3826 10.7825 19.5388 10.4936 19.5388 10.4936C19.9021 11.0241 19.735 11.8136 19.735 11.8136C19.7628 11.7939 20.4669 11.2795 19.6073 9.98792C19.4512 10.8577 17.4066 10.8475 16.8798 12.339Z" fill="#BA8238"/>
<path d="M17.182 10.7395C16.7172 11.5181 16.8791 12.3404 16.8791 12.3404C16.8106 11.2379 17.7555 10.2513 17.7555 10.2513C17.7555 10.2513 16.6259 10.5542 16.3093 11.7421C16.3093 11.7428 16.3093 11.7435 16.3093 11.7443C16.3239 11.7165 16.7179 11.0044 17.182 10.7395Z" fill="#BA8238"/>
<path d="M17.9977 29.6916C17.9335 29.8601 17.8517 30.0199 17.7518 30.171C18.2173 29.8696 18.4588 29.3946 18.5807 28.9341C18.4347 29.1297 18.1859 29.4639 17.9977 29.6916Z" fill="#BA8238"/>
<path d="M16.855 30.392C17.9547 29.6353 18.1772 28.5553 18.1903 28.4897C18.1903 28.4882 18.1903 28.4875 18.1903 28.486C18.1903 28.486 17.8379 29.3084 17.2243 29.8629C17.325 29.4222 17.4023 28.9771 17.4556 28.5283C17.3505 29.18 17.1498 29.8009 16.855 30.392Z" fill="#BA8238"/>
<path d="M25.2696 16.8929C25.2696 16.8929 25.6724 15.4182 24.5071 14.2405C25.185 14.7418 26.0474 15.0475 26.0737 15.057C26.0299 15.0249 24.6457 13.9975 24.0204 12.7337C24.205 14.2595 24.4013 14.6367 24.4013 14.6367L23.9569 14.547C25.4812 15.238 25.2696 16.8929 25.2696 16.8929Z" fill="#BA8238"/>
<path d="M21.6417 11.591C22.9982 11.3298 23.6198 12.0515 23.6198 12.0515C23.4513 12.05 23.2842 12.0675 23.12 12.104C23.6556 12.3645 23.5089 13.2358 23.5016 13.2766C24.0029 12.0734 23.7235 11.6647 23.7235 11.6647L24.4699 11.8866C24.4699 11.8866 23.436 10.5155 21.9489 10.9402C21.9489 10.9402 22.4049 10.0514 23.3141 9.84054C21.9219 9.66322 21.3907 10.66 21.6417 11.591Z" fill="#BA8238"/>
<path d="M19.8029 9.17503L19.0302 9.66684L19.8226 9.4151C20.615 9.16336 20.9514 8.6825 20.9514 8.6825C20.9514 8.6825 20.4545 9.08309 19.376 9.02909L19.8547 8.74379C19.8547 8.74379 18.8908 8.85251 18.1888 9.44574C18.8018 9.13928 19.8029 9.17503 19.8029 9.17503Z" fill="#BA8238"/>
<path d="M16.3121 5.27197V6.70944C12.8513 6.97796 11.6677 8.22134 11.6677 8.22134L10.7381 6.1111L11.2832 5.27561L10.1164 4.6999L9.59253 3.51124L12.1216 4.89326L11.6342 6.3716L13.6663 6.98307L15.6831 5.91409L14.3887 4.65538L16.3114 1.87238V3.08657L15.2942 4.41897L16.3121 5.27197Z" fill="#BA8238"/>
<path d="M22.5071 4.69982L21.3404 5.27554L21.8855 6.11103L20.9558 8.22127H20.9004L21.5637 6.18983L20.9901 5.11574L22.2481 4.49259L23.031 3.51117L22.5071 4.69982Z" fill="#BA8238"/>
</svg>
