<svg width="54" height="76" viewBox="0 0 54 76" fill="none" xmlns="http://www.w3.org/2000/svg">
<mask id="mask0_3_593" style="mask-type:luminance" maskUnits="userSpaceOnUse" x="0" y="0" width="54" height="76">
<path d="M0 0H54V75.6675H0V0Z" fill="white"/>
</mask>
<g mask="url(#mask0_3_593)">
<path d="M50.4618 40.9173C50.3941 40.794 50.3524 40.7315 50.3524 40.7315L50.408 40.742C50.6997 39.4676 50.717 38.1916 50.4601 36.9103C51.7396 36.6343 52.9201 36.1239 54 35.3808C52.8438 34.9398 51.7813 34.3304 50.8125 33.5579C49.8958 32.7835 49.066 31.9276 48.3194 30.9866L50.724 31.7019L48.1597 27.03C47.2587 25.8946 46.1528 25.023 44.8403 24.4137L44.3767 24.2227L44.3229 24.2036C44.8385 23.7261 45.7031 23.0647 47.1267 22.2991C44.9566 21.0143 42.5174 21.0612 41.1615 21.2244C40.8628 21.2556 40.566 21.3042 40.2726 21.3702C40.1667 21.3928 40.1094 21.4084 40.1094 21.4084C40.1649 21.1862 40.1962 20.9605 40.2066 20.7331L40.217 20.4258L40.5069 19.3372L42.7049 14.3476L42.0677 13.3805L43.4201 12.7121L47.059 4.44989L33.4983 10.0888L28.7135 3.15995L27 0.0366516L25.2865 3.15995L20.5017 10.0888L6.94097 4.4551L10.5816 12.7156L11.9375 13.3805L11.3056 14.3493L13.5035 19.3389L13.7934 20.4275L13.8038 20.7348C13.8142 20.9622 13.8472 21.1879 13.901 21.4102C13.901 21.4102 13.8437 21.3963 13.7361 21.372C13.4427 21.306 13.1476 21.2574 12.849 21.2261C11.4931 21.0629 9.05556 21.0195 6.88368 22.3008C8.30382 23.0664 9.17188 23.7279 9.6875 24.2053L9.63368 24.2244L9.17014 24.4154C7.85764 25.0248 6.75174 25.8963 5.85069 27.0335L3.28646 31.7037L5.69097 30.9901C4.94444 31.9294 4.11285 32.7853 3.19618 33.5596C2.22569 34.3339 1.15972 34.9398 0 35.3808C1.07986 36.1239 2.25868 36.6343 3.53993 36.9103C3.28299 38.1916 3.30035 39.4676 3.59201 40.742L3.64757 40.7315C3.64757 40.7315 3.60764 40.794 3.53819 40.9173C2.78993 42.1899 2.30208 43.8149 2.07118 45.7906C1.79861 47.6101 1.67188 49.9435 1.92188 52.8254C2.61285 52.2334 3.13715 51.7699 3.53819 51.4157C3.5191 51.5147 3.5 51.6223 3.47743 51.7265C3.43576 51.907 2.74479 54.9053 1.92188 57.881C3.1059 57.1987 4.22396 56.421 5.27604 55.5477C5.26215 55.7907 5.25694 56.0373 5.26042 56.2769C5.31597 60.3637 7.74132 62.9488 7.84375 63.0564L8.47049 63.711L9.03472 64.3047L10.6128 65.9593C10.6128 65.9593 10.9809 69.8951 15.349 73.6017L15.5469 72.0201C16.0937 72.7302 16.8021 73.5965 17.2622 73.9611C17.276 73.9298 17.3872 71.159 17.5 70.744C18.0382 71.8569 19.2483 73.475 21.9167 74.4003C21.7743 73.8257 21.658 73.3395 21.5642 72.9385C21.9792 73.3691 22.4983 73.8899 22.9635 74.3309C23.2465 74.633 23.5538 74.9073 23.8854 75.1521C23.9375 75.1937 23.9826 75.2285 24.0243 75.251C23.9514 74.4611 23.9028 73.9402 23.8698 73.5982C24.0469 73.7406 24.2344 73.8795 24.4306 74.0149C24.908 74.6069 25.7135 75.2996 27.0017 75.6295C28.2934 75.2944 29.0955 74.6087 29.5729 74.0149C29.7691 73.8795 29.9549 73.7406 30.1319 73.5982C30.1007 73.9402 30.0521 74.4594 29.9774 75.251C30.0156 75.2267 30.0642 75.192 30.1163 75.1521C30.4497 74.9073 30.7552 74.633 31.0382 74.3309C31.5035 73.8899 32.0243 73.3691 32.4375 72.9385C32.3403 73.3395 32.2274 73.8274 32.0868 74.4003C34.75 73.4715 35.9635 71.8552 36.5 70.744C36.6163 71.159 36.7257 73.9298 36.7413 73.9611C37.1997 73.5965 37.908 72.7302 38.4566 72.0201L38.6528 73.6017C43.0191 69.8951 43.3889 65.9593 43.3889 65.9593L44.967 64.3047L45.5313 63.711L46.158 63.0564C46.2622 62.9488 48.6875 60.3637 48.7413 56.2769C48.7413 56.0373 48.7413 55.7907 48.7257 55.5477C49.4531 56.1657 50.5278 56.9661 52.0799 57.881C51.2587 54.9053 50.5677 51.907 50.526 51.7265C50.5035 51.6223 50.4826 51.5181 50.4653 51.4157C50.8646 51.7699 51.3924 52.2317 52.0799 52.8254C52.3316 49.9417 52.2049 47.6101 51.9323 45.7906C51.7014 43.8184 51.2118 42.1934 50.4618 40.9173Z" fill="#010101"/>
</g>
<path d="M11.8906 30.627C11.875 30.7156 11.3403 33.5594 8.41321 35.4969C5.44099 37.4657 5.59029 40.1931 5.59029 40.1931C5.59029 40.1931 4.63369 36.6844 7.40453 33.8823C5.79342 35.075 3.74133 35.8024 3.67883 35.825C3.77606 35.7486 7.0764 33.3042 8.56425 30.2972C8.56425 30.2972 8.90626 32.2937 8.46529 34.0333C10.8872 32.943 11.8611 30.6965 11.8906 30.627Z" fill="#DFAF67"/>
<path d="M20.8594 71.2125C20.7813 71.1865 18.2622 70.3063 18.3247 64.6343C18.3924 58.8721 16.7587 57.0388 16.7587 57.0388C18.4011 63.7541 15.4983 70.1552 15.4184 70.3271C15.4427 70.1518 16.3316 63.6881 13.882 59.2089C14.5677 62.4572 13 64.5024 13.6198 68.4642C11.6927 65.617 12.9011 58.9051 11.6285 55.8929C11.9861 59.9867 10.5504 64.209 10.5504 64.209C10.5504 64.209 10.5504 57.9884 8.94793 54.0804C7.88543 57.7801 9.30036 61.518 9.34376 61.6204C9.27605 61.5492 6.96355 59.0492 7.38369 55.2054C7.80904 51.3095 7.18577 48.6567 7.18577 48.6567C7.18577 48.6567 7.08855 50.721 5.32292 52.9797C6.59897 47.6758 5.35765 45.5873 5.35765 45.5873C4.31077 48.0439 4.0139 49.5925 4.0139 49.5925C3.67536 39.9691 7.99654 39.9969 7.99654 39.9969C7.99654 39.9969 5.97918 42.8112 6.4132 45.5873C8.63369 40.0299 13.2726 39.3684 13.4167 39.3493C10.9826 41.0542 10.0347 43.0473 9.97744 43.1688C10.0556 43.0629 11.1615 41.5768 13.5642 40.4726C10.3316 42.9969 10.382 46.5421 10.382 46.5421L10.3906 46.53C10.5017 46.3616 11.7118 44.5421 13.4792 43.1584L13.4861 43.1515C10.5868 46.6463 11.0208 50.7019 11.0208 50.7019C11.0208 50.7019 11.8611 47.3824 13.5156 45.3685C11.7517 49.6359 13.2066 54.1307 13.2344 54.2193C13.2344 54.2193 13.2465 53.5596 13.349 52.6377C13.349 52.6307 13.349 52.6238 13.349 52.6168C13.5122 51.1724 13.8976 49.0873 14.8038 47.8182C13.8056 53.353 16.1354 57.3079 16.1354 57.3079C16.1354 57.3079 16.1354 54.0943 15.3212 51.537C19.5208 56.4554 18.9705 63.6204 18.9705 63.6204C18.9705 63.6204 19.2969 62.4416 19.8195 61.5579C18.5747 68.7368 20.7865 71.1361 20.8594 71.2125Z" fill="#DFAF67"/>
<path d="M15.2152 28.5593C15.2152 28.5593 13.0781 27.9464 10.9132 28.3909C11.9114 28.6409 12.1944 28.8371 12.1944 28.8371C12.1944 28.8371 10.085 28.7815 9.80726 31.5906C8.60934 28.7242 9.27427 27.752 9.27427 27.752L7.49823 28.2798C7.49823 28.2798 9.95656 25.0176 13.4948 26.028C13.4948 26.028 12.4097 23.9134 10.2465 23.4117C13.8559 22.7172 17.1319 24.1912 15.2152 28.5593Z" fill="#DFAF67"/>
<path d="M22.6579 39.1445C22.5989 39.1775 21.368 39.8806 20.2586 39.6115C19.151 39.3442 18.4305 37.8684 18.4097 37.8216L20.4218 38.4483V39.1619L20.4826 39.1046L20.9982 38.6271L22.6579 39.1428V39.1445Z" fill="#DFAF67"/>
<path d="M22.434 67.7768C22.3906 68.7646 22.5434 69.7195 22.8941 70.6431C23.0469 71.0459 23.2413 71.4261 23.4809 71.7855C22.3715 71.0685 21.7969 69.9383 21.5069 68.8428C21.2465 67.8011 21.1667 66.7473 21.2691 65.6795C21.467 67.7993 21.9653 68.6657 21.9653 68.6657C21.9653 68.6657 21.8611 67.0476 22.1892 65.9556C22.5365 67.4452 24.0833 69.8115 24.1319 69.8879C23.8819 68.9139 24.1406 67.5632 24.1406 67.5632C24.1406 67.5632 24.1528 67.6761 24.184 67.8809C24.434 69.4313 24.9115 70.9105 25.6146 72.315C22.9965 70.5112 22.4653 67.9417 22.4358 67.7855C22.4358 67.782 22.434 67.7803 22.434 67.7768Z" fill="#DFAF67"/>
<path d="M22.658 22.0349C23.4323 22.4256 24.0278 23.002 24.4445 23.7641C24.3976 23.7398 22.9132 22.9638 20.5278 22.436C22.0434 23.9534 22.7639 25.0055 22.7639 25.0055C22.7639 25.0055 20.6285 23.5332 18.2778 22.9395C15.9271 22.3457 15.8698 20.6564 15.8698 20.6564C15.8698 20.6564 17.0538 21.6096 19.6181 21.4811L18.4792 20.8005C18.4792 20.8005 22.2726 20.3231 24.5365 21.4221C23.5035 20.3873 23.2413 19.9603 23.2257 19.9394C23.3073 19.962 26.8507 21.0106 26.9132 24.6843C26.9132 24.6843 25.1719 22.0697 22.658 22.0349Z" fill="#DFAF67"/>
<path d="M28.276 46.5422C28.4947 46.3651 28.743 46.2574 29.0208 46.2192C29.2968 46.1793 29.5659 46.214 29.8246 46.3234C29.8246 46.3234 29.5833 45.4519 28.4183 45.6046C27.2534 45.7574 26.9131 45.6914 26.9131 45.6914C26.9131 45.6914 26.5729 45.7557 25.4079 45.6046C24.243 45.4519 24.0034 46.3234 24.0034 46.3234C24.2621 46.214 24.5295 46.1793 24.8072 46.2175C25.085 46.2574 25.3333 46.3651 25.552 46.5422C26.3368 47.1429 26.9166 47.0994 26.9166 47.0994C26.9166 47.0994 27.493 47.1429 28.276 46.5422Z" fill="white"/>
<path d="M29.3004 54.0787L29.1215 53.3304L29.0469 53.6586C28.1233 53.5318 26.9132 53.6586 26.9132 53.6586C26.9132 53.6586 25.7031 53.5318 24.7813 53.6586L24.7049 53.3304L24.5261 54.0787C24.5052 54.0596 24.1181 53.6933 24.2552 52.827C24.2552 52.827 24.8698 53.0648 26.9202 52.8495C28.9636 53.0648 29.5781 52.827 29.5781 52.827C29.7136 53.7159 29.3004 54.0787 29.3004 54.0787Z" fill="white"/>
<path d="M29.4983 65.9156C30.3039 64.6691 30.0122 62.9399 30.0122 62.9399C30.0122 62.9399 29.7622 66.6083 26.9184 66.6083C24.0747 66.6083 23.8247 62.9399 23.8247 62.9399C23.8247 62.9399 23.533 64.6691 24.3386 65.9156C19.1268 64.2264 21.0973 59.4832 21.0973 59.4832C21.0973 59.4832 21.3924 61.0735 22.7743 60.643C21.6893 58.9746 22.1545 56.8738 22.1545 56.8738C22.915 58.4832 23.8525 59.3617 24.415 59.7819C25.8959 59.0961 26.9202 59.2159 26.9202 59.2159C26.9202 59.2159 27.9462 59.0961 29.4236 59.7819C29.9861 59.3617 30.9236 58.4832 31.6841 56.8738C31.6841 56.8738 32.1493 58.9746 31.0643 60.643C32.4462 61.0735 32.7414 59.4832 32.7414 59.4832C32.7414 59.4832 34.7049 64.2264 29.4983 65.9156Z" fill="#DFAF67"/>
<path d="M45.1111 38.7834C42.4392 36.2591 42.7431 30.9066 36.6701 31.0576C37.9097 31.8875 38.5174 33.5854 38.5573 33.7035C38.4583 33.5663 36.4965 30.9014 32.9236 30.6496L32.8403 30.5507C31.8351 29.3909 30.3958 29.4309 29.1771 29.8458C29.3021 29.4604 29.7431 28.6427 31.3177 28.0177C33.4497 27.1704 33.9236 26.6426 33.9236 26.6426C33.9236 26.6426 34.2882 28.1565 31.7083 29.3614C31.7083 29.3614 34.6927 29.7277 36.4201 28.4274C35.7986 29.5368 34.4931 30.2225 32.9688 30.1305C32.9688 30.1305 40.0972 32.5021 37.1059 25.693C37.4497 27.4569 35.132 28.0923 35.0677 28.1097C35.1354 28.0628 36.809 26.8388 34.7639 23.7659C34.3941 25.8319 29.5243 25.8093 28.2726 29.3632C28.1111 26.7381 30.3594 24.3926 30.3594 24.3926C30.3594 24.3926 27.6667 25.1131 26.9149 27.9499C26.9149 27.9482 26.9149 27.9465 26.9149 27.9447C26.1615 25.1183 23.474 24.3978 23.474 24.3978C23.474 24.3978 25.7222 26.7451 25.5608 29.3684C24.3056 25.8197 19.4427 25.8405 19.0712 23.7763C17.026 26.8492 18.6997 28.0715 18.7674 28.1201C18.6997 28.1027 16.3854 27.4656 16.7292 25.7034C13.776 32.424 20.6858 30.2 20.8629 30.1409C19.3351 30.233 18.0295 29.5472 17.4097 28.4395C19.1389 29.7382 22.1215 29.3718 22.1215 29.3718C19.5434 28.1687 19.908 26.6531 19.908 26.6531C19.908 26.6531 20.3802 27.1808 22.5139 28.0281C24.092 28.6531 24.5295 29.4708 24.6528 29.8562C23.434 29.443 21.9948 29.4013 20.9913 30.5611L20.908 30.66C17.3333 30.9135 15.375 33.5767 15.2743 33.7139C15.3142 33.5958 15.9201 31.8979 17.1597 31.0698C11.0903 30.9187 11.3906 36.266 8.72223 38.7921C12.349 37.7921 14.651 33.6149 14.8056 33.3302C14.7361 33.4986 14.0833 35.1045 14.0122 36.825C15.2934 34.3545 17.2379 33.4847 18.3177 33.1844C17.3507 34.0247 16.4566 34.7504 15.7517 35.5125C15.5156 36.1462 15.2795 37.9153 15.7951 38.5021C15.8524 38.5699 15.9219 38.6219 16.0052 38.6549C16.7847 38.9709 17.8316 38.556 17.8316 38.556C17.8316 38.556 17.6545 37.4084 16.684 37.1931C17.2396 36.8389 18.3229 36.424 20.7049 37.8615C23.0851 39.3008 24.684 38.266 25.151 37.6358C25.6181 37.0056 25.7309 35.9813 25.7309 35.9813C25.9618 36.5299 26.0885 37.1028 26.1076 37.6983C23.5139 39.4275 23.6146 41.372 23.6146 41.372C23.6146 41.372 23.5382 40.8668 23.0851 40.2226C22.3229 40.8598 22.3438 42.1254 22.441 42.8373L22.4462 42.8824C22.441 42.865 22.434 42.8459 22.4271 42.8251C22.2014 42.1081 21.934 40.9484 22.2622 40.1706C22.2847 40.115 22.3108 40.0612 22.3403 40.0091C22.2413 40.0404 22.1285 40.0664 22.0191 40.0872C20.8733 40.3077 19.4688 40.0664 19.4688 40.0664L19.7309 40.464C18.8229 40.0595 18.0174 39.0751 18.0174 39.0751C18.0174 39.0751 14.6632 41.1445 14.8177 42.6602C14.9705 44.1741 16.1406 45.4484 16.1406 45.4484C16.1406 45.4484 16.1146 45.1706 16.026 44.2366C16.6129 45.5456 17.0695 46.9484 17.0972 47.0352C17.3403 46.3442 17.5451 45.6411 17.7135 44.9276C17.9028 44.0317 17.5382 41.8859 17.5382 41.8859C17.5382 41.8859 18.559 43.6272 20.2726 43.5144C19.151 43.9935 18.1302 45.7106 18.1302 45.7106C18.1302 45.7106 18.1927 45.7609 21.3056 46.6984L21.2396 46.6932C20.6632 46.629 18.0208 46.1828 18.0208 46.1828L18.4757 47.7852L22.5833 48.971C21.184 48.9971 18.6129 48.7314 18.6129 48.7314L19.1302 49.603L23.3385 50.4363C21.9358 50.5769 20.5347 50.5856 19.1302 50.4606C19.7674 50.9814 20.4427 51.4433 21.1597 51.846C21.0365 52.6464 20.908 54.886 22.8993 56.5128C22.8889 54.5353 23.2483 53.0943 23.5104 52.3061C24.8681 52.1447 26.6354 51.5578 26.4392 50.0335C26.2014 48.1707 24.5017 48.2123 22.8038 47.3998C21.1042 46.589 22 44.6012 22 44.6012C22.0208 44.6602 22.4201 45.8234 22.783 45.8494C23.1441 45.8755 23.8056 45.6099 24.309 44.214C25.1059 45.2019 26.9097 44.9328 26.9097 44.9328C26.9097 44.9328 28.7135 45.1984 29.5104 44.214C30.0139 45.6099 30.6649 45.8755 31.0365 45.8494C31.408 45.8234 31.8195 44.5994 31.8195 44.5994C31.8195 44.5994 32.7222 46.5804 31.0243 47.3911C29.3247 48.2019 27.625 48.162 27.3872 50.0248C27.1892 51.5509 28.9583 52.1394 30.316 52.2974C30.5799 53.0891 30.9392 54.5266 30.9271 56.5041C32.9219 54.8756 32.7951 52.6342 32.6701 51.8322C33.3872 51.4294 34.0642 50.9693 34.6997 50.4485C33.2969 50.5735 31.8941 50.5648 30.4931 50.4224L34.6997 49.5891L35.217 48.7193C35.217 48.7193 32.6545 48.9901 31.2517 48.9641L35.3594 47.7783L35.8125 46.1758C35.8125 46.1758 32.901 46.6706 32.5243 46.6932C35.6354 45.7592 35.6979 45.7053 35.6979 45.7053C35.6979 45.7053 34.6788 43.9883 33.5573 43.5091C35.2708 43.622 36.2899 41.8807 36.2899 41.8807C36.2899 41.8807 35.9254 44.0265 36.1146 44.9224C36.283 45.6359 36.4879 46.339 36.7309 47.03C36.7309 47.03 37.1979 45.5803 37.8038 44.2279C37.7153 45.1619 37.6892 45.4397 37.6892 45.4397C37.6892 45.4397 38.8611 44.1654 39.0122 42.6515C39.1632 41.1359 35.8125 39.0699 35.8125 39.0699C35.8125 39.0699 35.007 40.0577 34.099 40.4588L34.3646 40.0542C34.3646 40.0542 32.6754 40.3442 31.4913 39.997C31.9445 40.7886 31.632 42.1098 31.3854 42.872C31.4844 42.1689 31.5278 40.8581 30.7483 40.2018C30.2951 40.8459 30.2188 41.3511 30.2188 41.3511C30.2188 41.3511 30.3177 39.4067 27.724 37.6775C27.7448 37.082 27.8715 36.5091 28.1024 35.9604C28.1024 35.9604 28.2153 36.983 28.6806 37.615C29.1476 38.2469 30.7483 39.2799 33.1285 37.8407C35.5087 36.4014 36.5938 36.8198 37.1476 37.1723C36.1788 37.3875 36.0017 38.5351 36.0017 38.5351C36.0017 38.5351 37.0469 38.9518 37.8281 38.6341C38.6076 38.3181 38.3455 36.1983 38.0799 35.4917C37.3733 34.7313 36.4792 34.0038 35.5156 33.1635C36.5938 33.4604 38.5365 34.3302 39.8212 36.8042C39.75 35.0837 39.0972 33.4778 39.0278 33.3094C39.1788 33.5993 41.4826 37.7782 45.1111 38.7834ZM26.9132 35.5976C26.9132 35.5976 25.6858 34.1219 25.434 33.0611C25.875 33.7434 26.9132 34.1601 26.9132 34.1601C26.9132 34.1601 27.9531 33.7434 28.3941 33.0611C28.1406 34.1219 26.9132 35.5976 26.9132 35.5976Z" fill="white"/>
<path d="M45.3628 34.0386C42.8958 32.9309 41.9357 30.6305 41.9357 30.6305C41.9357 30.6305 42.4392 33.5351 45.4132 35.5039C48.3871 37.4726 48.2343 40.1983 48.2343 40.1983C48.2343 40.1983 49.1927 36.6896 46.4201 33.8875C48.059 35.0993 50.1493 35.832 50.1493 35.832C50.1493 35.832 46.7743 33.3597 45.2621 30.3024C45.2621 30.2972 44.9218 32.2937 45.3628 34.0386Z" fill="#DFAF67"/>
<path d="M45.8298 39.9969C45.8298 39.9969 47.8472 42.8112 47.4149 45.5873C45.1579 39.9431 40.4062 39.3493 40.4062 39.3493C42.9201 41.108 43.8489 43.174 43.8489 43.174C43.8489 43.174 42.7534 41.6185 40.2586 40.4709C43.493 42.9969 43.4409 46.5421 43.4409 46.5421C43.4409 46.5421 42.1944 44.6046 40.335 43.1497C43.2378 46.6446 42.802 50.7002 42.802 50.7002C42.802 50.7002 41.9617 47.3841 40.3072 45.3685C42.0885 49.6793 40.5867 54.221 40.5867 54.221C40.5867 54.221 40.5104 49.9085 39.0156 47.8164C40.0156 53.353 37.684 57.3061 37.684 57.3061C37.684 57.3061 37.684 54.0926 38.4999 51.537C34.2986 56.4537 34.8489 63.6187 34.8489 63.6187C34.8489 63.6187 34.5225 62.4416 33.9999 61.5579C35.2742 68.8583 32.9687 71.2143 32.9687 71.2143C32.9687 71.2143 35.5676 70.3966 35.5017 64.6343C35.4357 58.8739 37.0711 57.0388 37.0711 57.0388C35.4045 63.8496 38.4114 70.3306 38.4114 70.3306C38.4114 70.3306 37.4635 63.7506 39.9461 59.2089C39.2569 62.4572 40.8281 64.5041 40.2083 68.4642C42.1354 65.617 40.927 58.9051 42.2013 55.8947C41.842 59.9867 43.2795 64.209 43.2795 64.209C43.2795 64.209 43.2795 57.9902 44.8801 54.0804C45.9583 57.8356 44.4861 61.6221 44.4861 61.6221C44.4861 61.6221 46.8697 59.103 46.4461 55.2054C46.0225 51.3095 46.644 48.6585 46.644 48.6585C46.644 48.6585 46.743 50.721 48.5051 52.9797C47.2308 47.6776 48.4722 45.5873 48.4722 45.5873C49.519 48.0456 49.8159 49.5942 49.8159 49.5942C50.151 39.9743 45.8298 39.9969 45.8298 39.9969Z" fill="#DFAF67"/>
<path d="M42.9149 28.3909C41.9149 28.6427 41.6371 28.8371 41.6371 28.8371C41.6371 28.8371 43.7482 28.7816 44.026 31.5906C45.2187 28.7243 44.5538 27.752 44.5538 27.752L46.3281 28.2815C46.3281 28.2815 43.8698 25.0194 40.3316 26.0281C40.3316 26.0281 41.4166 23.9134 43.5798 23.4134C39.9705 22.7207 36.6944 24.1912 38.6093 28.5593C38.6093 28.5593 40.7448 27.9465 42.9149 28.3909Z" fill="#DFAF67"/>
<path d="M29.1041 58.4728C27.7777 58.2749 26.9097 58.386 26.9097 58.386C26.9097 58.386 26.0433 58.2714 24.717 58.4728C24.2552 57.8079 24.3124 57.287 24.3124 57.287L24.9045 57.7488C25.4808 57.6915 26.9097 57.6776 26.9097 57.6776C26.9097 57.6776 28.3402 57.6915 28.9166 57.7488L29.5086 57.287C29.5086 57.287 29.5677 57.8079 29.1041 58.4728Z" fill="white"/>
<path d="M32.8316 38.6271L31.1702 39.1445C31.1702 39.1445 32.4341 39.8893 33.5695 39.615C34.7066 39.3389 35.4184 37.8216 35.4184 37.8216L33.4045 38.4483V39.1619L32.8316 38.6271Z" fill="#DFAF67"/>
<path d="M31.8663 68.6639C31.8663 68.6639 31.9722 67.0441 31.6424 65.9521C31.2882 67.466 29.6996 69.8879 29.6996 69.8879C29.9496 68.9139 29.691 67.558 29.691 67.558C29.4653 69.2264 28.974 70.8098 28.2153 72.3115C30.9184 70.4504 31.3958 67.7785 31.3958 67.7785C31.3958 67.7785 31.5764 69.9521 30.3507 71.7855C33.1024 70.0077 32.5608 65.6761 32.5608 65.6761C32.3594 67.7941 31.8663 68.6639 31.8663 68.6639Z" fill="#DFAF67"/>
<path d="M31.1701 22.0367C29.875 22.7069 29.3819 23.7642 29.3819 23.7642C29.3819 23.7642 30.875 22.9742 33.2986 22.436C31.7847 23.9534 31.0625 25.0055 31.0625 25.0055C31.0625 25.0055 33.1962 23.5333 35.5486 22.9395C37.8993 22.3475 37.9566 20.6565 37.9566 20.6565C37.9566 20.6565 36.7726 21.6114 34.2083 21.4812L35.3472 20.8006C35.3472 20.8006 31.5538 20.3249 29.2899 21.4239C30.3559 20.3544 30.6024 19.9343 30.6024 19.9343C30.6024 19.9343 26.9774 20.9638 26.9149 24.6791C26.9132 24.6861 28.6545 22.0697 31.1701 22.0367Z" fill="#DFAF67"/>
<path d="M42.9011 8.35427L35.698 11.3491L37.2396 14.7519L33.2084 16.613L28.4132 14.0714L31.4931 11.0783L26.9184 4.45493L22.3455 11.0783L25.4184 14.0714L20.6198 16.613L16.5886 14.7519L18.1285 11.3491L10.9271 8.35427L12.1719 11.1824L14.948 12.5522L13.6511 14.5401L15.8629 19.561H15.9948C18.7917 18.1061 22.6511 17.2051 26.9132 17.2051C31.1771 17.2051 35.0365 18.1061 37.8316 19.561H37.9636L40.1754 14.5401L38.8785 12.5522L41.6546 11.1824L42.9011 8.35427ZM25.2865 10.3074L26.9132 8.04871L28.54 10.3074L26.9132 11.6425L25.2865 10.3074Z" fill="#DFAF67"/>
<path d="M15.4184 70.3271C15.4427 70.1535 16.3316 63.6899 13.8819 59.2089C14.5677 62.4572 13 64.5041 13.6198 68.4642C11.6927 65.617 12.901 58.9051 11.6285 55.8947C11.9861 59.9867 10.5503 64.209 10.5503 64.209C10.5503 64.209 10.5503 57.9902 8.94791 54.0804C7.88541 57.7801 9.30035 61.5197 9.34375 61.6204C9.27604 61.551 6.96354 59.0509 7.38368 55.2054C7.80903 51.3113 7.18576 48.6585 7.18576 48.6585C7.18576 48.6585 7.08854 50.721 5.32291 52.9797C6.59896 47.6776 5.35764 45.5873 5.35764 45.5873C4.31076 48.0456 4.01389 49.5942 4.01389 49.5942C3.67882 39.9743 8 39.9969 8 39.9969C8 39.9969 5.51736 40.674 4.82465 45.2366C5.1441 44.806 5.39583 44.339 5.57812 43.8355C5.57812 43.8355 6.85416 47.7644 6.20833 50.4745C6.67882 49.3113 7 48.1064 7.17014 46.8633C7.17014 46.8633 8.93576 49.7001 8.24653 53.5544C8.62673 52.8495 8.875 52.0995 8.98611 51.3061C8.98611 51.3061 11.3281 55.6308 10.8108 60.202C11.4774 57.5579 11.1319 54.0804 11.1319 54.0804C11.1319 54.0804 13.0729 55.7749 12.8819 60.794C13.3177 59.4694 13.5069 58.11 13.4497 56.7176C13.4497 56.7176 16.6806 60.9433 16.2378 65.5389C17.0972 64.0163 17.1354 59.3391 16.7604 57.0388C18.401 63.7559 15.4983 70.1552 15.4184 70.3271Z" fill="#BA8238"/>
<path d="M10.3854 46.5404C10.2656 46.0751 10.3576 44.7435 10.7569 43.089C9.6059 43.9883 8.71527 45.3633 8.71527 45.3633C9.43228 40.7712 13.2969 39.3927 13.4167 39.3511C10.9826 41.056 10.0347 43.049 9.97742 43.1706C10.0555 43.0647 11.1615 41.5785 13.5642 40.4744C10.3351 42.9969 10.3854 46.5404 10.3854 46.5404Z" fill="#BA8238"/>
<path d="M13.2361 54.2193C13.2361 54.2193 13.2482 53.5613 13.3507 52.6377C13.283 53.5752 13.2361 54.2193 13.2361 54.2193Z" fill="#AF7127"/>
<path d="M13.2361 54.2193C13.1996 54.1655 12.0416 52.4884 11.993 49.7019C11.3698 51.0648 10.8524 53.2783 10.8524 53.2783C9.30031 47.0595 13.2725 43.3477 13.4826 43.1567L13.4895 43.1515C10.5885 46.6446 11.0225 50.7002 11.0225 50.7002C11.0225 50.7002 11.8611 47.3824 13.5156 45.3685C11.7517 49.6359 13.2066 54.1308 13.2361 54.2193Z" fill="#BA8238"/>
<path d="M29.4983 65.9156C30.3039 64.6691 30.0122 62.9399 30.0122 62.9399C30.0122 62.9399 29.7622 66.6084 26.9184 66.6084C24.0747 66.6084 23.8247 62.9399 23.8247 62.9399C23.8247 62.9399 23.533 64.6691 24.3386 65.9156C19.1268 64.2264 21.0973 59.4833 21.0973 59.4833C21.0973 59.4833 20.9827 62.9972 23.2014 64.7108C23.0868 61.992 23.6302 60.643 23.6302 60.643C23.6302 60.643 23.5643 63.558 26.9184 63.558C30.2726 63.558 30.2066 60.643 30.2066 60.643C30.2066 60.643 30.75 61.992 30.6354 64.7108C32.8542 62.9972 32.7396 59.4833 32.7396 59.4833C32.7396 59.4833 34.7049 64.2264 29.4983 65.9156Z" fill="#BA8238"/>
<path d="M26.9132 58.0266V58.386C26.9132 58.386 26.0469 58.2714 24.7205 58.4728C24.2587 57.8079 24.316 57.287 24.316 57.287C24.316 57.287 24.5521 57.8964 24.8889 58.1516C25.1372 58.0145 26.9132 58.0266 26.9132 58.0266Z" fill="#010101" fill-opacity="0.298"/>
<path d="M26.9132 52.8478V53.1221C26.9132 53.1221 25.3542 53.2332 24.5261 53.0822C24.4271 53.7384 24.5191 54.0561 24.5261 54.0787C24.5052 54.0596 24.1181 53.6916 24.2552 52.8252C24.2552 52.8252 24.8698 53.0648 26.9132 52.8478Z" fill="#010101" fill-opacity="0.298"/>
<path d="M22.8888 56.504C20.8958 54.8773 21.0243 52.6394 21.1475 51.8373C20.4323 51.4345 19.7552 50.9727 19.118 50.4536C20.5225 50.5769 21.9253 50.5699 23.3263 50.4276L19.118 49.5942L18.6024 48.7244C18.6024 48.7244 21.1666 48.9883 22.5711 48.964L18.4635 47.7782L18.0104 46.174C18.0104 46.174 20.651 46.622 21.2274 46.6845L18.5972 46.7938L19.7621 47.5491L24.3003 49.1168L20.7135 49.398L24.7361 50.3147C24.7361 50.3147 24.2048 50.6411 21.9149 51.4258C20.9045 54.3286 22.7986 56.4033 22.8888 56.504Z" fill="#010101" fill-opacity="0.298"/>
<path d="M21.717 40.99C21.4861 40.9275 20.0451 40.4432 20.0451 40.4432C20.0451 40.4432 20.0867 40.6324 20.3923 41.306C19.5381 40.7921 18.7447 40.1949 18.0138 39.5161C18.0138 39.5161 16.5433 40.464 15.934 41.4432C15.3246 42.4224 15.835 43.5925 15.835 43.5925L16.0242 42.6862C16.7656 44.3442 17.0763 46.9155 17.0885 47.03C17.0607 46.9432 16.6041 45.5404 16.019 44.2331C16.1058 45.1672 16.1319 45.445 16.1319 45.445C16.1319 45.445 14.96 44.1689 14.809 42.655C14.6579 41.1411 18.0104 39.0699 18.0104 39.0699C18.0104 39.0699 18.8159 40.0577 19.7239 40.4588L19.4583 40.0543C19.4583 40.0543 21.1475 40.3442 22.3315 39.997C21.8871 40.7713 22.1753 42.0456 22.4183 42.8147C22.3524 42.7418 21.9913 42.3164 21.717 40.99Z" fill="#010101" fill-opacity="0.298"/>
<path d="M26.9132 44.2591V44.9345C26.9132 44.9345 25.1094 45.2001 24.3125 44.2157C23.809 45.6116 23.158 45.8772 22.7864 45.8512C22.4149 45.8251 22.0243 44.6654 22.0052 44.6029C22.0278 44.6428 22.4392 45.3598 23.1354 45.1706C23.8524 44.9779 24.2205 42.5907 24.2205 42.5907C24.2205 42.5907 24.7257 44.1202 26.9132 44.2591Z" fill="#010101" fill-opacity="0.298"/>
<path d="M18.4062 37.8216L20.4183 38.4483V39.0733C19.6545 38.6879 18.4531 37.8545 18.4079 37.8233L18.4062 37.8216Z" fill="#BA8238"/>
<path d="M22.658 39.145C22.6007 39.1555 21.4461 39.3988 20.8611 39.2563C20.7291 39.218 20.6041 39.1676 20.4826 39.1033L20.9982 38.6271L22.6562 39.1416L22.658 39.145Z" fill="#BA8238"/>
<path d="M22.0139 40.0755C22.1233 40.0545 22.2309 40.0283 22.3351 39.9969C22.3056 40.0493 22.2795 40.1034 22.2552 40.1592L22.0139 40.0755Z" fill="#BA8238"/>
<path d="M25.724 35.9657C25.724 35.9657 25.6094 36.9865 25.1441 37.6185C24.6789 38.2504 23.073 39.2834 20.698 37.8442C18.3212 36.4066 17.2327 36.8233 16.6789 37.1775C17.6476 37.391 17.8247 38.5403 17.8247 38.5403C17.8247 38.5403 16.7778 38.9553 15.9983 38.6393C15.915 38.6046 15.8438 38.5542 15.7848 38.4865L15.7796 38.4778C15.7796 38.4778 15.7223 36.6757 16.5087 35.5976C17.2952 34.5195 20.2657 33.2747 20.2657 33.2747C20.2726 33.634 20.3247 33.9882 20.4202 34.3354C20.5139 34.6844 20.6511 35.0143 20.8282 35.3285C21.0052 35.641 21.2171 35.9275 21.4671 36.1879C21.7153 36.4483 21.9914 36.6757 22.2969 36.8667C21.3473 36.6688 20.4618 36.3111 19.6407 35.7955C21.2118 37.8928 24.2934 39.0959 25.724 35.9657Z" fill="#010101" fill-opacity="0.298"/>
<path d="M20.9027 30.6444C19.3385 31.0003 16.8229 32.1878 14.7031 34.6826C14.6892 33.7052 15.2951 32.0142 15.3159 31.9604C15.2743 31.9812 14.0642 32.6653 12.4253 35.2452C10.7882 37.825 8.78122 38.7504 8.71698 38.7834C11.3871 36.2573 11.085 30.9083 17.1562 31.0593C15.9166 31.8892 15.309 33.5872 15.2708 33.7052C15.3715 33.5628 17.3298 30.8979 20.9027 30.6444Z" fill="#010101" fill-opacity="0.298"/>
<path d="M18.7604 28.1079C18.7604 28.1079 17.9184 28.16 16.6736 27.594C16.5121 28.8232 17.1267 29.4534 17.1267 29.4534C17.9236 30.66 20.7361 30.1513 20.8576 30.1288C20.6788 30.1878 13.7708 32.41 16.7239 25.6912C16.3767 27.4551 18.6927 28.0906 18.7604 28.1079Z" fill="#010101" fill-opacity="0.298"/>
<path d="M25.5521 29.3579C25.5018 29.2746 24.6649 27.9117 22.1684 26.8006C19.5972 25.6548 19.224 24.9673 19.224 24.9673C18.3629 26.2294 18.7604 28.1079 18.7604 28.1079C18.6927 28.0611 17.0191 26.8371 19.0642 23.7641C19.4358 25.8336 24.3004 25.8093 25.5521 29.3579Z" fill="#010101" fill-opacity="0.298"/>
<path d="M24.835 25.5523C25.9409 27.4048 25.5555 29.3614 25.5555 29.3614C25.717 26.7381 23.4687 24.3909 23.4687 24.3909C23.4687 24.3909 26.1562 25.1114 26.9114 27.9378C26.9114 27.9395 26.9114 27.9413 26.9114 27.943C26.8767 27.877 25.9392 26.1826 24.835 25.5523Z" fill="#010101" fill-opacity="0.298"/>
<path d="M22.8941 70.6448C23.0469 71.0459 23.2413 71.4261 23.4809 71.7855C22.3715 71.0684 21.7969 69.9382 21.507 68.8427C21.8524 69.308 22.4514 70.1031 22.8941 70.6448Z" fill="#BA8238"/>
<path d="M25.6129 72.3115C22.9966 70.5111 22.4653 67.9417 22.4358 67.7854C22.4358 67.7819 22.4358 67.7802 22.4358 67.7767C22.4358 67.7767 23.2743 69.7334 24.7344 71.0528C24.4948 70.0042 24.3108 68.9451 24.1841 67.8774C24.4341 69.4278 24.9115 70.9052 25.6129 72.3115Z" fill="#BA8238"/>
<path d="M5.59029 40.1931C5.59029 40.1931 4.63369 36.6844 7.40453 33.8823C5.79342 35.075 3.74133 35.8024 3.67883 35.825C3.77606 35.7486 7.0764 33.3042 8.56425 30.2972C8.12501 33.9274 7.65626 34.825 7.65626 34.825L8.71529 34.6115C5.08856 36.2556 5.59029 40.1931 5.59029 40.1931Z" fill="#BA8238"/>
<path d="M14.2239 27.5784C10.9948 26.9569 9.51733 28.6739 9.51733 28.6739C9.92011 28.6704 10.3177 28.7121 10.71 28.7989C9.43747 29.4187 9.78469 31.4917 9.80205 31.5889C8.60934 28.7243 9.27427 27.752 9.27427 27.752L7.49823 28.2798C7.49823 28.2798 9.95656 25.0176 13.4948 26.0281C13.4948 26.0281 12.4097 23.9134 10.2465 23.4117C13.5573 22.9916 14.8194 25.3631 14.2239 27.5784Z" fill="#BA8238"/>
<path d="M18.6042 21.8301L20.4427 23.0002L18.5573 22.4013C16.6719 21.8023 15.8698 20.6582 15.8698 20.6582C15.8698 20.6582 17.0538 21.6113 19.6181 21.4829L18.4792 20.804C18.4792 20.804 20.7656 21.0627 22.4393 22.4725C20.9809 21.745 18.6042 21.8301 18.6042 21.8301Z" fill="#BA8238"/>
<path d="M38.3994 70.3271C38.3768 70.1535 37.4897 63.6916 39.9376 59.2089C39.2518 62.4572 40.8195 64.5041 40.198 68.4642C42.1268 65.617 40.9185 58.9051 42.1911 55.8947C41.8317 59.9867 43.2692 64.209 43.2692 64.209C43.2692 64.209 43.2692 57.9902 44.8716 54.0804C45.9341 57.7801 44.5192 61.5197 44.4758 61.6204C44.5435 61.551 46.8542 59.0509 46.4358 55.2054C46.0105 51.3113 46.632 48.6585 46.632 48.6585C46.632 48.6585 46.731 50.721 48.4949 52.9797C47.2206 47.6776 48.4619 45.5873 48.4619 45.5873C49.507 48.0456 49.8039 49.5942 49.8039 49.5942C50.1407 39.9743 45.8195 39.9969 45.8195 39.9969C45.8195 39.9969 48.3022 40.674 48.9931 45.2366C48.6754 44.806 48.4254 44.339 48.2431 43.8355C48.2431 43.8355 46.9671 47.7644 47.6129 50.4745C47.1407 49.3113 46.8195 48.1064 46.6511 46.8633C46.6511 46.8633 44.889 49.7001 45.5799 53.5544C45.198 52.8495 44.9515 52.0995 44.8386 51.3061C44.8386 51.3061 42.4966 55.6308 43.014 60.202C42.349 57.5579 42.6928 54.0804 42.6928 54.0804C42.6928 54.0804 40.7501 55.7749 40.9428 60.794C40.507 59.4694 40.3178 58.11 40.3751 56.7176C40.3751 56.7176 37.1407 60.9433 37.5886 65.5389C36.7275 64.0163 36.6893 59.3391 37.0643 57.0388C35.4185 63.7559 38.3195 70.1552 38.3994 70.3271Z" fill="#BA8238"/>
<path d="M43.434 46.5404C43.5521 46.0751 43.46 44.7435 43.0607 43.089C44.2135 43.9883 45.1041 45.3633 45.1041 45.3633C44.3871 40.7712 40.5225 39.3927 40.401 39.3511C42.8368 41.056 43.7847 43.049 43.8403 43.1706C43.7621 43.0647 42.6562 41.5785 40.2552 40.4744C43.4844 42.9969 43.434 46.5404 43.434 46.5404Z" fill="#BA8238"/>
<path d="M40.5816 54.2193C40.5816 54.2193 40.5712 53.5613 40.467 52.6377C40.5365 53.5752 40.5816 54.2193 40.5816 54.2193Z" fill="#AF7127"/>
<path d="M40.5833 54.2193C40.6198 54.1655 41.7778 52.4884 41.8264 49.7019C42.4497 51.0648 42.967 53.2783 42.967 53.2783C44.5191 47.0595 40.5469 43.3477 40.3368 43.1567L40.3299 43.1515C43.2309 46.6446 42.7951 50.7002 42.7951 50.7002C42.7951 50.7002 41.9566 47.3842 40.3004 45.3685C42.0677 49.6359 40.6111 54.1308 40.5833 54.2193Z" fill="#BA8238"/>
<path d="M24.3264 65.9156C23.5208 64.6691 23.8125 62.9399 23.8125 62.9399C23.8125 62.9399 24.0625 66.6084 26.9062 66.6084C29.7483 66.6084 30 62.9399 30 62.9399C30 62.9399 30.2899 64.6691 29.4861 65.9156C34.6979 64.2264 32.7274 59.4833 32.7274 59.4833C32.7274 59.4833 32.842 62.9972 30.6215 64.7108C30.7361 61.992 30.1944 60.643 30.1944 60.643C30.1944 60.643 30.2604 63.558 26.9062 63.558C23.5521 63.558 23.618 60.643 23.618 60.643C23.618 60.643 23.0746 61.992 23.1892 64.7108C20.9687 62.9972 21.0833 59.4833 21.0833 59.4833C21.0833 59.4833 19.1146 64.2264 24.3264 65.9156Z" fill="#BA8238"/>
<path d="M26.9062 58.0266V58.386C26.9062 58.386 27.7726 58.2714 29.099 58.4728C29.5608 57.8079 29.5035 57.287 29.5035 57.287C29.5035 57.287 29.2656 57.8964 28.9306 58.1516C28.6806 58.0145 26.9062 58.0266 26.9062 58.0266Z" fill="#010101" fill-opacity="0.298"/>
<path d="M26.9062 52.8478V53.1221C26.9062 53.1221 28.4635 53.2332 29.2934 53.0822C29.3924 53.7384 29.3003 54.0561 29.2934 54.0787C29.3142 54.0596 29.6997 53.6916 29.5625 52.8252C29.5642 52.8252 28.9497 53.0648 26.9062 52.8478Z" fill="#010101" fill-opacity="0.298"/>
<path d="M30.9271 56.504C32.9184 54.8773 32.7899 52.6394 32.6667 51.8373C33.3837 51.4345 34.059 50.9727 34.6962 50.4536C33.2934 50.5769 31.8906 50.5699 30.4896 50.4276L34.6962 49.5942L35.2135 48.7244C35.2135 48.7244 32.6441 48.9883 31.2448 48.964L35.3507 47.7782L35.8055 46.174C35.8055 46.174 33.1649 46.622 32.5868 46.6845H32.5816L35.2135 46.7938L34.0469 47.5491L29.5087 49.1168L33.0955 49.398L29.0746 50.3147C29.0746 50.3147 29.6059 50.6411 31.8941 51.4258C32.9132 54.3286 31.0208 56.4033 30.9271 56.504Z" fill="#BA8238"/>
<path d="M32.1025 40.99C32.3334 40.9275 33.7743 40.4432 33.7743 40.4432C33.7743 40.4432 33.7327 40.6324 33.4271 41.306C34.2813 40.7921 35.0747 40.1949 35.8056 39.5161C35.8056 39.5161 37.2761 40.464 37.8854 41.4432C38.4948 42.4224 37.9844 43.5925 37.9844 43.5925L37.7952 42.6862C37.0538 44.3442 36.7431 46.9155 36.7292 47.03C36.7587 46.9432 37.2136 45.5404 37.8004 44.2331C37.7118 45.1672 37.6858 45.445 37.6858 45.445C37.6858 45.445 38.8594 44.1689 39.0104 42.655C39.1597 41.1411 35.809 39.0699 35.809 39.0699C35.809 39.0699 35.0035 40.0577 34.0955 40.4588L34.3611 40.0543C34.3611 40.0543 32.6719 40.3442 31.4879 39.997C31.9306 40.7713 31.6441 42.0456 31.4011 42.8147C31.4705 42.7418 31.8281 42.3164 32.1025 40.99Z" fill="#BA8238"/>
<path d="M26.9062 44.2592V44.9345C26.9062 44.9345 28.7083 45.2001 29.5069 44.2192C30.0104 45.6168 30.6597 45.8824 31.033 45.8547C31.4045 45.8286 31.7951 44.6689 31.8142 44.6064C31.7917 44.6463 31.3802 45.3633 30.6823 45.1758C29.967 44.9831 29.5972 42.5942 29.5972 42.5942C29.5972 42.5942 29.0938 44.1203 26.9062 44.2592Z" fill="#010101" fill-opacity="0.298"/>
<path d="M35.4184 37.8216L33.4045 38.4483V39.0733C34.1702 38.6879 35.3698 37.8545 35.4167 37.8233L35.4184 37.8216Z" fill="#BA8238"/>
<path d="M31.1614 39.145C31.2169 39.1555 32.3732 39.3988 32.9583 39.2563C33.0902 39.218 33.2152 39.1676 33.3367 39.1033L32.8211 38.6271L31.1631 39.1416L31.1614 39.145Z" fill="#BA8238"/>
<path d="M31.8056 40.0755C31.6962 40.0545 31.5885 40.0283 31.4844 39.9969C31.5139 40.0493 31.5399 40.1034 31.5625 40.1592L31.8056 40.0755Z" fill="#BA8238"/>
<path d="M28.0955 35.9657C28.0955 35.9657 28.2084 36.9865 28.6736 37.6185C29.1407 38.2504 30.7466 39.2834 33.1216 37.8442C35.4983 36.4067 36.5868 36.8233 37.1407 37.1775C36.1719 37.391 35.9948 38.5404 35.9948 38.5404C35.9948 38.5404 37.04 38.9553 37.8212 38.6393C37.9028 38.6046 37.974 38.5543 38.0313 38.4848L38.0365 38.4779C38.0365 38.4779 38.0938 36.674 37.3073 35.5959C36.5209 34.5178 33.5504 33.2729 33.5504 33.2729C33.5434 33.6341 33.4914 33.9865 33.3976 34.3337C33.3021 34.6827 33.1667 35.0126 32.9896 35.3251C32.8125 35.6393 32.6007 35.9258 32.3525 36.1862C32.1042 36.4466 31.8264 36.6723 31.5226 36.865C32.4723 36.6671 33.3577 36.3094 34.1789 35.7938C32.6077 37.8928 29.5243 39.0959 28.0955 35.9657Z" fill="#BA8238"/>
<path d="M32.915 30.6444C34.481 31.0003 36.9966 32.1878 39.1146 34.6826C39.1303 33.7052 38.5226 32.0142 38.5035 31.9604C38.5435 31.9812 39.7553 32.6653 41.3924 35.2452C43.0313 37.825 45.0435 38.7504 45.1025 38.7782C42.4323 36.2521 42.7344 30.9031 36.6632 31.0541C37.9028 31.884 38.5087 33.5819 38.5487 33.7C38.448 33.5628 36.4896 30.8979 32.915 30.6444Z" fill="#BA8238"/>
<path d="M35.059 28.1079C35.059 28.1079 35.8993 28.16 37.1458 27.594C37.3073 28.8232 36.6927 29.4534 36.6927 29.4534C35.8958 30.66 33.0816 30.1513 32.9618 30.1288C33.1389 30.1878 40.0486 32.41 37.0955 25.6912C37.4392 27.4551 35.1215 28.0906 35.059 28.1079Z" fill="#BA8238"/>
<path d="M28.2656 29.3579C28.316 29.2746 29.1528 27.9117 31.6476 26.8006C34.2205 25.6548 34.592 24.9673 34.592 24.9673C35.4566 26.2294 35.059 28.1079 35.059 28.1079C35.125 28.0611 36.8003 26.8371 34.7552 23.7641C34.3837 25.8336 29.5191 25.8093 28.2656 29.3579Z" fill="#BA8238"/>
<path d="M28.9843 25.5523C27.8784 27.4048 28.2639 29.3614 28.2639 29.3614C28.1007 26.7381 30.3489 24.3909 30.3489 24.3909C30.3489 24.3909 27.6614 25.1114 26.908 27.9378C26.908 27.9395 26.908 27.9413 26.908 27.943C26.9427 27.877 27.8802 26.1826 28.9843 25.5523Z" fill="#BA8238"/>
<path d="M30.9253 70.6448C30.7726 71.0459 30.5781 71.4261 30.3403 71.7855C31.4479 71.0684 32.0226 69.9382 32.3125 68.8427C31.9653 69.308 31.3733 70.1031 30.9253 70.6448Z" fill="#BA8238"/>
<path d="M28.2066 72.3115C30.8229 70.5111 31.3524 67.9417 31.3837 67.7854C31.3837 67.7819 31.3837 67.7802 31.3837 67.7767C31.3837 67.7767 30.5451 69.7334 29.0851 71.0528C29.3247 70.0042 29.5087 68.9451 29.6354 67.8774C29.3854 69.4278 28.908 70.9052 28.2066 72.3115Z" fill="#BA8238"/>
<path d="M48.2274 40.1931C48.2274 40.1931 49.1857 36.6844 46.4132 33.8823C48.026 35.075 50.0781 35.8024 50.1406 35.825C50.0364 35.7486 46.743 33.3042 45.2552 30.2972C45.6944 33.9274 46.1614 34.825 46.1614 34.825L45.1041 34.6115C48.7309 36.2556 48.2274 40.1931 48.2274 40.1931Z" fill="#BA8238"/>
<path d="M39.5955 27.5784C42.8229 26.9568 44.3021 28.6739 44.3021 28.6739C43.901 28.6704 43.5035 28.7121 43.1128 28.7989C44.3872 29.4187 44.0382 31.4916 44.0208 31.5888C45.2135 28.726 44.5486 27.7537 44.5486 27.7537L46.3247 28.2815C46.3247 28.2815 43.8646 25.0193 40.3264 26.0297C40.3264 26.0297 41.4115 23.9151 43.5747 23.4134C40.2622 22.9915 38.9983 25.3631 39.5955 27.5784Z" fill="#BA8238"/>
<path d="M35.2205 21.8301L33.3819 23.0002L35.2673 22.4013C37.1528 21.8023 37.9531 20.6582 37.9531 20.6582C37.9531 20.6582 36.7708 21.6113 34.2048 21.4829L35.3437 20.804C35.3437 20.804 33.0503 21.0627 31.3802 22.4742C32.8385 21.745 35.2205 21.8301 35.2205 21.8301Z" fill="#BA8238"/>
<path d="M26.915 12.5436V15.9637C18.6806 16.6026 15.8646 19.561 15.8646 19.561L13.6528 14.5401L14.9497 12.5522L12.1737 11.1824L10.9271 8.35427L16.9445 11.6425L15.7848 15.1599L20.6198 16.6148L25.4184 14.0714L22.3386 11.0765L26.9132 4.45493V7.34385L24.4931 10.514L26.915 12.5436Z" fill="#BA8238"/>
<path d="M41.6546 11.1824L38.8785 12.5522L40.1754 14.54L37.9636 19.5609H37.8317L39.4098 14.7276L38.0452 12.172L41.0383 10.6893L42.9011 8.35422L41.6546 11.1824Z" fill="#BA8238"/>
</svg>
